<svg xmlns="http://www.w3.org/2000/svg" viewBox="0 0 16 16">
 <path d="m 0.538 0 c -0.293 0.031 -0.539 0.306 -0.537 0.6 l 0 10.808 c 0 0.314 0.286 0.6 0.6 0.6 l 5.4 0 0 2.99 4 0 0 -2.99 5.4 0 c 0.314 0 0.6 -0.286 0.6 -0.6 l 0 -10.808 c 0 -0.314 -0.286 -0.6 -0.6 -0.6 l -14.8 0 z m 1.813 2 c 0.025 -0.005 0.05 -0.005 0.075 0 l 11.147 0 c 0.209 0 0.4 0.191 0.4 0.4 l 0 7.205 c 0 0.21 -0.191 0.4 -0.4 0.4 l -11.147 0 c -0.209 0 -0.4 -0.191 -0.4 -0.4 l 0 -7.205 c -0.003 -0.187 0.142 -0.365 0.325 -0.4 z m -0.351 11.997 0 2 l 12 0 0 -2 z" style="fill:#bebebe;fill-opacity:1;color:#000"/>
</svg>
