<?xml version="1.0" encoding="UTF-8" standalone="no"?>
<!-- Created with Inkscape (http://www.inkscape.org/) -->

<svg
   xmlns:dc="http://purl.org/dc/elements/1.1/"
   xmlns:cc="http://creativecommons.org/ns#"
   xmlns:rdf="http://www.w3.org/1999/02/22-rdf-syntax-ns#"
   xmlns:svg="http://www.w3.org/2000/svg"
   xmlns="http://www.w3.org/2000/svg"
   xmlns:sodipodi="http://sodipodi.sourceforge.net/DTD/sodipodi-0.dtd"
   xmlns:inkscape="http://www.inkscape.org/namespaces/inkscape"
   width="256"
   height="72"
   viewBox="0 0 256 72.000001"
   id="svg3611"
   version="1.1"
   inkscape:version="0.91 r13725"
   sodipodi:docname="enter-keyboard-shortcut.svg">
  <defs
     id="defs3613" />
  <sodipodi:namedview
     id="base"
     pagecolor="#ffffff"
     bordercolor="#666666"
     borderopacity="1.0"
     inkscape:pageopacity="0.0"
     inkscape:pageshadow="2"
     inkscape:zoom="2.8"
     inkscape:cx="137.98997"
     inkscape:cy="34.663602"
     inkscape:document-units="px"
     inkscape:current-layer="layer1"
     showgrid="false"
     units="px"
     inkscape:window-width="1366"
     inkscape:window-height="704"
     inkscape:window-x="0"
     inkscape:window-y="27"
     inkscape:window-maximized="1" />
  <metadata
     id="metadata3616">
    <rdf:RDF>
      <cc:Work
         rdf:about="">
        <dc:format>image/svg+xml</dc:format>
        <dc:type
           rdf:resource="http://purl.org/dc/dcmitype/StillImage" />
        <dc:title></dc:title>
      </cc:Work>
    </rdf:RDF>
  </metadata>
  <g
     inkscape:label="Camada 1"
     inkscape:groupmode="layer"
     id="layer1"
     transform="translate(0,-980.36216)">
    <g
       id="g3715"
       transform="translate(-503.23415,689.94658)">
      <path
         d="m 509.66363,325.47627 c 5.53002,1.4185 18.51389,1.4185 24.29359,0 0.80721,-0.19813 1.43306,0.67185 1.50029,1.50028 l 1.99751,13.05863 -1.50028,0 -28.28862,0 -1.50029,0 c 0.66583,-4.35287 1.33167,-8.70575 1.99752,-13.05863 0.12564,-0.82161 0.69518,-1.70681 1.50028,-1.50028 z"
         id="path27275"
         style="fill:#ffffff;fill-opacity:1;stroke:#000000;stroke-width:1.59999979;stroke-miterlimit:4;stroke-dasharray:none;stroke-opacity:1"
         sodipodi:nodetypes="sssccccss"
         inkscape:connector-curvature="0" />
      <path
         d="m 543.62146,325.47627 c 5.53,1.4185 18.51387,1.4185 24.29357,0 0.80721,-0.19813 1.43308,0.67185 1.50029,1.50028 l 1.99753,13.05863 -1.5003,0 -28.28862,0 -1.50029,0 c 0.66583,-4.35287 1.33168,-8.70575 1.99752,-13.05863 0.12564,-0.82161 0.69518,-1.70681 1.5003,-1.50028 z"
         id="path27277"
         style="fill:#ffffff;fill-opacity:1;stroke:#000000;stroke-width:1.59999979;stroke-miterlimit:4;stroke-dasharray:none;stroke-opacity:1"
         sodipodi:nodetypes="sssccccss"
         inkscape:connector-curvature="0" />
      <path
         d="m 577.57927,325.47627 c 5.53,1.4185 18.51387,1.4185 24.29357,0 0.80721,-0.19813 1.43308,0.67185 1.50029,1.50028 l 1.99753,13.05863 -1.5003,0 -28.28862,0 -1.50029,0 c 0.66583,-4.35287 1.33168,-8.70575 1.99752,-13.05863 0.12564,-0.82161 0.6952,-1.70681 1.5003,-1.50028 z"
         id="path27279"
         style="fill:#ffffff;fill-opacity:1;stroke:#000000;stroke-width:1.59999979;stroke-miterlimit:4;stroke-dasharray:none;stroke-opacity:1"
         sodipodi:nodetypes="sssccccss"
         inkscape:connector-curvature="0" />
      <path
         d="m 611.12326,325.47627 c 5.53002,1.4185 18.51389,1.4185 24.29359,0 0.80721,-0.19813 1.43306,0.67185 1.50029,1.50028 l 1.99751,13.05863 -1.50028,0 -28.28862,0 -1.50029,0 c 0.66583,-4.35287 1.33167,-8.70575 1.99752,-13.05863 0.12564,-0.82161 0.69518,-1.70681 1.50028,-1.50028 z"
         id="path5218"
         style="fill:#ffffff;fill-opacity:1;stroke:#000000;stroke-width:1.59999979;stroke-miterlimit:4;stroke-dasharray:none;stroke-opacity:1"
         sodipodi:nodetypes="sssccccss"
         inkscape:connector-curvature="0" />
      <path
         d="m 645.08109,325.47627 c 5.53,1.4185 18.51387,1.4185 24.29357,0 0.80721,-0.19813 1.43308,0.67185 1.50029,1.50028 l 1.99753,13.05863 -1.5003,0 -28.28862,0 -1.50029,0 c 0.66583,-4.35287 1.33168,-8.70575 1.99751,-13.05863 0.12565,-0.82161 0.69519,-1.70681 1.50031,-1.50028 z"
         id="path5220"
         style="fill:#ffffff;fill-opacity:1;stroke:#000000;stroke-width:1.59999979;stroke-miterlimit:4;stroke-dasharray:none;stroke-opacity:1"
         sodipodi:nodetypes="sssccccss"
         inkscape:connector-curvature="0" />
      <path
         d="m 679.0389,325.47627 c 5.53,1.4185 18.51387,1.4185 24.29357,0 0.80721,-0.19813 1.43308,0.67185 1.50029,1.50028 l 1.99753,13.05863 -1.5003,0 -28.28862,0 -1.50029,0 c 0.66583,-4.35287 1.33168,-8.70575 1.99751,-13.05863 0.12565,-0.82161 0.69521,-1.70681 1.50031,-1.50028 z"
         id="path5222"
         style="fill:#ffffff;fill-opacity:1;stroke:#000000;stroke-width:1.59999979;stroke-miterlimit:4;stroke-dasharray:none;stroke-opacity:1"
         sodipodi:nodetypes="sssccccss"
         inkscape:connector-curvature="0" />
      <path
         d="m 712.58289,325.47627 c 5.53002,1.4185 18.51389,1.4185 24.29359,0 0.80721,-0.19813 1.43306,0.67185 1.50029,1.50028 l 1.99751,13.05863 -1.50028,0 -28.28862,0 -1.50029,0 c 0.66583,-4.35287 1.33167,-8.70575 1.99751,-13.05863 0.12565,-0.82161 0.69519,-1.70681 1.50029,-1.50028 z"
         id="path4829"
         style="fill:#ffffff;fill-opacity:1;stroke:#000000;stroke-width:1.60000002;stroke-miterlimit:4;stroke-dasharray:none;stroke-opacity:1"
         sodipodi:nodetypes="sssccccss"
         inkscape:connector-curvature="0" />
      <path
         d="m 516.19044,335.26648 c 5.53002,1.41851 18.51389,1.41851 24.2936,0 0.8072,-0.19812 1.43306,0.67186 1.50028,1.50029 l 1.99752,13.05863 -1.50029,0 -28.28862,0 -1.50029,0 c 0.66584,-4.35288 1.33167,-8.70575 1.99752,-13.05863 0.12564,-0.82161 0.69518,-1.70681 1.50028,-1.50029 z"
         id="path3662"
         style="fill:#ffffff;fill-opacity:1;stroke:#000000;stroke-width:1.59999979;stroke-miterlimit:4;stroke-dasharray:none;stroke-opacity:1"
         sodipodi:nodetypes="sssccccss"
         inkscape:connector-curvature="0" />
      <path
         d="m 550.14827,335.26648 c 5.53,1.41851 18.51387,1.41851 24.29358,0 0.8072,-0.19812 1.43307,0.67186 1.50028,1.50029 l 1.99753,13.05863 -1.5003,0 -28.28862,0 -1.50029,0 c 0.66584,-4.35288 1.33168,-8.70575 1.99752,-13.05863 0.12564,-0.82161 0.69518,-1.70681 1.5003,-1.50029 z"
         id="path3664"
         style="fill:#ffffff;fill-opacity:1;stroke:#000000;stroke-width:1.59999979;stroke-miterlimit:4;stroke-dasharray:none;stroke-opacity:1"
         sodipodi:nodetypes="sssccccss"
         inkscape:connector-curvature="0" />
      <path
         d="m 584.10608,335.26648 c 5.53,1.41851 18.51387,1.41851 24.29357,0 0.80721,-0.19812 1.43308,0.67186 1.50029,1.50029 l 1.99753,13.05863 -1.5003,0 -28.28862,0 -1.50029,0 c 0.66584,-4.35288 1.33168,-8.70575 1.99752,-13.05863 0.12564,-0.82161 0.6952,-1.70681 1.5003,-1.50029 z"
         id="path3666"
         style="fill:#ffffff;fill-opacity:1;stroke:#000000;stroke-width:1.59999979;stroke-miterlimit:4;stroke-dasharray:none;stroke-opacity:1"
         sodipodi:nodetypes="sssccccss"
         inkscape:connector-curvature="0" />
      <path
         d="m 617.65007,335.26648 c 5.53002,1.41851 18.51389,1.41851 24.29359,0 0.80721,-0.19812 1.43306,0.67186 1.50029,1.50029 l 1.99751,13.05863 -1.50028,0 -28.28862,0 -1.50029,0 c 0.66584,-4.35288 1.33167,-8.70575 1.99752,-13.05863 0.12564,-0.82161 0.69518,-1.70681 1.50028,-1.50029 z"
         id="path3668"
         style="fill:#ffffff;fill-opacity:1;stroke:#000000;stroke-width:1.59999979;stroke-miterlimit:4;stroke-dasharray:none;stroke-opacity:1"
         sodipodi:nodetypes="sssccccss"
         inkscape:connector-curvature="0" />
      <path
         d="m 651.6079,335.26648 c 5.53,1.41851 18.51387,1.41851 24.29357,0 0.80721,-0.19812 1.43308,0.67186 1.50029,1.50029 l 1.99753,13.05863 -1.5003,0 -28.28862,0 -1.50029,0 c 0.66583,-4.35288 1.33168,-8.70575 1.99752,-13.05863 0.12564,-0.82161 0.69518,-1.70681 1.5003,-1.50029 z"
         id="path3670"
         style="fill:#ffffff;fill-opacity:1;stroke:#000000;stroke-width:1.59999979;stroke-miterlimit:4;stroke-dasharray:none;stroke-opacity:1"
         sodipodi:nodetypes="sssccccss"
         inkscape:connector-curvature="0" />
      <path
         d="m 685.56571,335.26648 c 5.53,1.41851 18.51387,1.41851 24.29357,0 0.80721,-0.19812 1.43308,0.67186 1.50029,1.50029 l 1.99753,13.05863 -1.5003,0 -28.28862,0 -1.50029,0 c 0.66583,-4.35288 1.33168,-8.70575 1.99752,-13.05863 0.12564,-0.82161 0.6952,-1.70681 1.5003,-1.50029 z"
         id="path3672"
         style="fill:#ffffff;fill-opacity:1;stroke:#000000;stroke-width:1.59999979;stroke-miterlimit:4;stroke-dasharray:none;stroke-opacity:1"
         sodipodi:nodetypes="sssccccss"
         inkscape:connector-curvature="0" />
      <path
         d="m 719.1097,335.26648 c 5.53002,1.41851 18.51389,1.41851 24.29359,0 0.80721,-0.19812 1.43306,0.67186 1.50029,1.50029 l 1.99751,13.05863 -1.50028,0 -28.28862,0 -1.50029,0 c 0.66583,-4.35288 1.33167,-8.70575 1.99752,-13.05863 0.12564,-0.82161 0.69518,-1.70681 1.50028,-1.50029 z"
         id="path3674"
         style="fill:#ffffff;fill-opacity:1;stroke:#000000;stroke-width:1.60000002;stroke-miterlimit:4;stroke-dasharray:none;stroke-opacity:1"
         sodipodi:nodetypes="sssccccss"
         inkscape:connector-curvature="0" />
      <path
         d="m 525.98066,345.0567 c 5.53002,1.4185 18.51389,1.4185 24.29359,0 0.80721,-0.19812 1.43306,0.67185 1.50029,1.50029 l 1.99751,13.05863 -1.50028,0 -28.28862,0 -1.50029,0 c 0.66583,-4.35288 1.33167,-8.70576 1.99752,-13.05863 0.12564,-0.82162 0.69518,-1.70681 1.50028,-1.50029 z"
         id="path3676"
         style="fill:#ffffff;fill-opacity:1;stroke:#000000;stroke-width:1.59999979;stroke-miterlimit:4;stroke-dasharray:none;stroke-opacity:1"
         sodipodi:nodetypes="sssccccss"
         inkscape:connector-curvature="0" />
      <path
         d="m 559.93849,345.0567 c 5.53,1.4185 18.51387,1.4185 24.29357,0 0.80721,-0.19812 1.43308,0.67185 1.50029,1.50029 l 1.99753,13.05863 -1.5003,0 -28.28862,0 -1.50029,0 c 0.66583,-4.35288 1.33168,-8.70576 1.99751,-13.05863 0.12565,-0.82162 0.69519,-1.70681 1.50031,-1.50029 z"
         id="path3678"
         style="fill:#ffffff;fill-opacity:1;stroke:#000000;stroke-width:1.59999979;stroke-miterlimit:4;stroke-dasharray:none;stroke-opacity:1"
         sodipodi:nodetypes="sssccccss"
         inkscape:connector-curvature="0" />
      <path
         d="m 593.8963,345.0567 c 5.53,1.4185 18.51387,1.4185 24.29357,0 0.80721,-0.19812 1.43308,0.67185 1.50029,1.50029 l 1.99753,13.05863 -1.5003,0 -28.28862,0 -1.50029,0 c 0.66583,-4.35288 1.33168,-8.70576 1.99751,-13.05863 0.12565,-0.82162 0.69521,-1.70681 1.50031,-1.50029 z"
         id="path3680"
         style="fill:#ffffff;fill-opacity:1;stroke:#000000;stroke-width:1.59999979;stroke-miterlimit:4;stroke-dasharray:none;stroke-opacity:1"
         sodipodi:nodetypes="sssccccss"
         inkscape:connector-curvature="0" />
      <path
         d="m 627.44029,345.0567 c 5.53002,1.4185 18.51389,1.4185 24.29359,0 0.80721,-0.19812 1.43306,0.67185 1.50029,1.50029 l 1.99751,13.05863 -1.50028,0 -28.28862,0 -1.50029,0 c 0.66583,-4.35288 1.33167,-8.70576 1.99751,-13.05863 0.12565,-0.82162 0.69519,-1.70681 1.50029,-1.50029 z"
         id="path3682"
         style="fill:#ffffff;fill-opacity:1;stroke:#000000;stroke-width:1.59999979;stroke-miterlimit:4;stroke-dasharray:none;stroke-opacity:1"
         sodipodi:nodetypes="sssccccss"
         inkscape:connector-curvature="0" />
      <path
         d="m 661.39812,345.0567 c 5.53,1.4185 18.51387,1.4185 24.29357,0 0.80721,-0.19812 1.43308,0.67185 1.50029,1.50029 l 1.99753,13.05863 -1.5003,0 -28.28863,0 -1.50028,0 c 0.66583,-4.35288 1.33168,-8.70576 1.99751,-13.05863 0.12564,-0.82162 0.69519,-1.70681 1.50031,-1.50029 z"
         id="path3684"
         style="fill:#ffffff;fill-opacity:1;stroke:#000000;stroke-width:1.59999979;stroke-miterlimit:4;stroke-dasharray:none;stroke-opacity:1"
         sodipodi:nodetypes="sssccccss"
         inkscape:connector-curvature="0" />
      <path
         d="m 695.35593,345.0567 c 5.53,1.4185 18.51387,1.4185 24.29357,0 0.8072,-0.19812 1.43308,0.67185 1.50029,1.50029 l 1.99753,13.05863 -1.5003,0 -28.28863,0 -1.50028,0 c 0.66583,-4.35288 1.33168,-8.70576 1.99751,-13.05863 0.12564,-0.82162 0.69521,-1.70681 1.50031,-1.50029 z"
         id="path3686"
         style="fill:#ffffff;fill-opacity:1;stroke:#000000;stroke-width:1.59999979;stroke-miterlimit:4;stroke-dasharray:none;stroke-opacity:1"
         sodipodi:nodetypes="sssccccss"
         inkscape:connector-curvature="0" />
      <path
         d="m 728.89992,345.0567 c 5.53002,1.4185 18.51389,1.4185 24.29359,0 0.8072,-0.19812 1.43306,0.67185 1.50029,1.50029 l 1.99751,13.05863 -1.50028,0 -28.28863,0 -1.50028,0 c 0.66583,-4.35288 1.33166,-8.70576 1.99751,-13.05863 0.12564,-0.82162 0.69519,-1.70681 1.50029,-1.50029 z"
         id="path3688"
         style="fill:#ffffff;fill-opacity:1;stroke:#000000;stroke-width:1.60000002;stroke-miterlimit:4;stroke-dasharray:none;stroke-opacity:1"
         sodipodi:nodetypes="sssccccss"
         inkscape:connector-curvature="0" />
      <g
         id="g3713"
         transform="matrix(1.359752,0,0,1.359752,418.09336,-671.08525)">
        <path
           d="m 95.250257,715.10933 0,1.09089 c -1.31e-4,0.0113 -5.02e-4,0.0227 0,0.0341 0.01222,0.27812 0.140266,0.55621 0.340902,0.74999 l 5.693061,5.76124 5.65897,-5.76124 c 0.20529,-0.20532 0.30681,-0.49473 0.30681,-0.78413 l 0,-1.09089 -1.09088,0 c -0.28941,0 -0.57881,0.10156 -0.78408,0.30681 l -4.09082,4.15901 -4.124913,-4.15901 c -0.212319,-0.22989 -0.511898,-0.33071 -0.818164,-0.30681 l -1.090886,0 z"
           id="path3715"
           style="color:#bebebe;font-style:normal;font-variant:normal;font-weight:normal;font-stretch:normal;font-size:medium;line-height:normal;font-family:'Andale Mono';-inkscape-font-specification:'Andale Mono';text-indent:0;text-align:start;text-decoration:none;text-decoration-line:none;letter-spacing:normal;word-spacing:normal;text-transform:none;direction:ltr;block-progression:tb;writing-mode:lr-tb;text-anchor:start;display:inline;overflow:visible;visibility:visible;fill:#000100;fill-opacity:1;fill-rule:nonzero;stroke:none;stroke-width:1.78124988;marker:none;enable-background:new"
           inkscape:connector-curvature="0" />
        <rect
           height="11.999745"
           id="rect3717"
           rx="0"
           ry="0"
           style="color:#bebebe;display:inline;overflow:visible;visibility:visible;fill:#000100;fill-opacity:1;fill-rule:nonzero;stroke:none;stroke-width:2;marker:none;enable-background:accumulate"
           transform="scale(-1,1)"
           width="2.1817718"
           x="-102.34102"
           y="708.92743" />
      </g>
      <g
         id="g3740"
         transform="matrix(1.359752,0,0,1.359752,492.12198,-661.29504)">
        <path
           d="m 95.250257,715.10933 0,1.09089 c -1.31e-4,0.0113 -5.02e-4,0.0227 0,0.0341 0.01222,0.27812 0.140266,0.55621 0.340902,0.74999 l 5.693061,5.76124 5.65897,-5.76124 c 0.20529,-0.20532 0.30681,-0.49473 0.30681,-0.78413 l 0,-1.09089 -1.09088,0 c -0.28941,0 -0.57881,0.10156 -0.78408,0.30681 l -4.09082,4.15901 -4.124913,-4.15901 c -0.212319,-0.22989 -0.511898,-0.33071 -0.818164,-0.30681 l -1.090886,0 z"
           id="path3742"
           style="color:#bebebe;font-style:normal;font-variant:normal;font-weight:normal;font-stretch:normal;font-size:medium;line-height:normal;font-family:'Andale Mono';-inkscape-font-specification:'Andale Mono';text-indent:0;text-align:start;text-decoration:none;text-decoration-line:none;letter-spacing:normal;word-spacing:normal;text-transform:none;direction:ltr;block-progression:tb;writing-mode:lr-tb;text-anchor:start;display:inline;overflow:visible;visibility:visible;fill:#000100;fill-opacity:1;fill-rule:nonzero;stroke:none;stroke-width:1.78124988;marker:none;enable-background:new"
           inkscape:connector-curvature="0" />
        <rect
           height="11.999745"
           id="rect3744"
           rx="0"
           ry="0"
           style="color:#bebebe;display:inline;overflow:visible;visibility:visible;fill:#000100;fill-opacity:1;fill-rule:nonzero;stroke:none;stroke-width:2;marker:none;enable-background:accumulate"
           transform="scale(-1,1)"
           width="2.1817718"
           x="-102.34102"
           y="708.92743" />
      </g>
      <g
         id="g3746"
         transform="matrix(1.359752,0,0,1.359752,593.58161,-661.29504)">
        <path
           d="m 95.250257,715.10933 0,1.09089 c -1.31e-4,0.0113 -5.02e-4,0.0227 0,0.0341 0.01222,0.27812 0.140266,0.55621 0.340902,0.74999 l 5.693061,5.76124 5.65897,-5.76124 c 0.20529,-0.20532 0.30681,-0.49473 0.30681,-0.78413 l 0,-1.09089 -1.09088,0 c -0.28941,0 -0.57881,0.10156 -0.78408,0.30681 l -4.09082,4.15901 -4.124913,-4.15901 c -0.212319,-0.22989 -0.511898,-0.33071 -0.818164,-0.30681 l -1.090886,0 z"
           id="path3748"
           style="color:#bebebe;font-style:normal;font-variant:normal;font-weight:normal;font-stretch:normal;font-size:medium;line-height:normal;font-family:'Andale Mono';-inkscape-font-specification:'Andale Mono';text-indent:0;text-align:start;text-decoration:none;text-decoration-line:none;letter-spacing:normal;word-spacing:normal;text-transform:none;direction:ltr;block-progression:tb;writing-mode:lr-tb;text-anchor:start;display:inline;overflow:visible;visibility:visible;fill:#000100;fill-opacity:1;fill-rule:nonzero;stroke:none;stroke-width:1.78124988;marker:none;enable-background:new"
           inkscape:connector-curvature="0" />
        <rect
           height="11.999745"
           id="rect3750"
           rx="0"
           ry="0"
           style="color:#bebebe;display:inline;overflow:visible;visibility:visible;fill:#000100;fill-opacity:1;fill-rule:nonzero;stroke:none;stroke-width:2;marker:none;enable-background:accumulate"
           transform="scale(-1,1)"
           width="2.1817718"
           x="-102.34102"
           y="708.92743" />
      </g>
    </g>
  </g>
</svg>
