<?xml version="1.0" encoding="UTF-8" standalone="no"?>
<!-- Created with Inkscape (http://www.inkscape.org/) -->
<svg id="svg7384" xmlns:rdf="http://www.w3.org/1999/02/22-rdf-syntax-ns#" xmlns="http://www.w3.org/2000/svg" xmlns:osb="http://www.openswatchbook.org/uri/2009/osb" height="16" viewBox="0 0 16 16.00001" width="16" version="1.1" xmlns:cc="http://creativecommons.org/ns#" xmlns:dc="http://purl.org/dc/elements/1.1/">
 <metadata id="metadata90">
  <rdf:RDF>
   <cc:Work rdf:about="">
    <dc:format>image/svg+xml</dc:format>
    <dc:type rdf:resource="http://purl.org/dc/dcmitype/StillImage"/>
    <dc:title>Gnome Symbolic Icon Theme</dc:title>
   </cc:Work>
  </rdf:RDF>
 </metadata>
 <title id="title9167">Gnome Symbolic Icon Theme</title>
 <g id="layer9" transform="translate(-303 85)">
  <path id="rect10788-4" style="color:#000000;text-indent:0;text-decoration-line:none;enable-background:new;text-transform:none;fill:#bebebe" d="m304.19-71c0 1.0907 0.90929 2 2 2l8.8232-0.00002c1.0907 0 2-0.90928 2-2l0.00001-11c0-1.0907-0.9093-2-2-2l-8.8232 0.00001c-1.0907 0-2 0.90929-2 2 4.3333-0.00001 6.4899-0.00001 10.823-0.00001l0.00001 11h-10.82z"/>
  <path id="path3601-2-3-3-9-34" style="color-rendering:auto;text-decoration-color:#000000;color:#000000;font-variant-numeric:normal;shape-rendering:auto;solid-color:#000000;text-decoration-line:none;fill:#bebebe;font-variant-position:normal;mix-blend-mode:normal;font-feature-settings:normal;shape-padding:0;font-variant-alternates:normal;text-indent:0;font-variant-ligatures:normal;dominant-baseline:auto;font-variant-caps:normal;image-rendering:auto;white-space:normal;text-decoration-style:solid;text-orientation:mixed;isolation:auto;text-transform:none" d="m303.69-73a0.50005 0.50005 0 1 0 0 1h1.8106a0.50005 0.50005 0 1 0 0 -1z"/>
  <path id="path3601-2-3-3-9-3-0" style="color-rendering:auto;text-decoration-color:#000000;color:#000000;font-variant-numeric:normal;shape-rendering:auto;solid-color:#000000;text-decoration-line:none;fill:#bebebe;font-variant-position:normal;mix-blend-mode:normal;font-feature-settings:normal;shape-padding:0;font-variant-alternates:normal;text-indent:0;font-variant-ligatures:normal;dominant-baseline:auto;font-variant-caps:normal;image-rendering:auto;white-space:normal;text-decoration-style:solid;text-orientation:mixed;isolation:auto;text-transform:none" d="m303.69-75a0.50005 0.50005 0 1 0 0 1h1.8106a0.50005 0.50005 0 1 0 0 -1z"/>
  <path id="path3601-2-3-3-9-3-3-4" style="color-rendering:auto;text-decoration-color:#000000;color:#000000;font-variant-numeric:normal;shape-rendering:auto;solid-color:#000000;text-decoration-line:none;fill:#bebebe;font-variant-position:normal;mix-blend-mode:normal;font-feature-settings:normal;shape-padding:0;font-variant-alternates:normal;text-indent:0;font-variant-ligatures:normal;dominant-baseline:auto;font-variant-caps:normal;image-rendering:auto;white-space:normal;text-decoration-style:solid;text-orientation:mixed;isolation:auto;text-transform:none" d="m303.69-77a0.50005 0.50005 0 1 0 0 1h1.8106a0.50005 0.50005 0 1 0 0 -1z"/>
  <path id="path3601-2-3-3-9-3-3-7-0" style="color-rendering:auto;text-decoration-color:#000000;color:#000000;font-variant-numeric:normal;shape-rendering:auto;solid-color:#000000;text-decoration-line:none;fill:#bebebe;font-variant-position:normal;mix-blend-mode:normal;font-feature-settings:normal;shape-padding:0;font-variant-alternates:normal;text-indent:0;font-variant-ligatures:normal;dominant-baseline:auto;font-variant-caps:normal;image-rendering:auto;white-space:normal;text-decoration-style:solid;text-orientation:mixed;isolation:auto;text-transform:none" d="m303.69-79a0.50005 0.50005 0 1 0 0 1h1.8106a0.50005 0.50005 0 1 0 0 -1z"/>
  <path id="path35635" style="color-rendering:auto;text-decoration-color:#000000;color:#000000;font-variant-numeric:normal;shape-rendering:auto;solid-color:#000000;text-decoration-line:none;fill:#bebebe;font-variant-position:normal;mix-blend-mode:normal;font-feature-settings:normal;shape-padding:0;font-variant-alternates:normal;text-indent:0;font-variant-ligatures:normal;dominant-baseline:auto;font-variant-caps:normal;image-rendering:auto;white-space:normal;text-decoration-style:solid;text-orientation:mixed;isolation:auto;text-transform:none" d="m303.69-81a0.50005 0.50005 0 1 0 0 1h1.8106a0.50005 0.50005 0 1 0 0 -1z"/>
  <path id="path35642" style="color:#000000;text-indent:0;text-decoration-line:none;text-transform:none;fill:#bebebe" d="m310-75c0.32762 0.0664 0.66579 0.007 1 0 0.33355-0.007 0.66868 0.0392 1 0 0.62377-0.0737 1.1958-0.46158 1.5227-0.99787 0.32697-0.53629 0.41177-1.2075 0.26-1.817-0.15177-0.60949-0.53175-1.1538-1.032-1.5335-0.5003-0.37976-1.1158-0.59773-1.7416-0.6516-0.90784-0.0782-1.842 0.19208-2.5655 0.74605-0.72346 0.55397-1.2285 1.3869-1.3811 2.2852-0.10756 0.63289-0.0431 1.2942 0.18467 1.8944 0.22777 0.60021 0.61825 1.1378 1.1186 1.54 0.50037 0.40219 1.1093 0.66796 1.7444 0.76136 0.63514 0.0934 1.2948 0.0142 1.8898-0.22694v-1c-0.45327 0.29856-0.99976 0.45332-1.5423 0.43675-0.54251-0.0166-1.0785-0.20438-1.5128-0.53004-0.43421-0.32566-0.7646-0.78766-0.93241-1.3038-0.1678-0.51618-0.17225-1.0841-0.0125-1.6029 0.19034-0.61825 0.6121-1.1586 1.1543-1.5115 0.54219-0.35284 1.1996-0.51929 1.8457-0.48853 0.53715 0.0256 1.0817 0.19329 1.483 0.55136 0.20061 0.17903 0.36214 0.40374 0.45639 0.65556 0.0943 0.25182 0.11974 0.53077 0.0607 0.79308-0.0541 0.24043-0.17919 0.46445-0.35541 0.63674s-0.403 0.29225-0.64459 0.34096v-0.978c-0.1194-0.2972-0.32939-0.55729-0.59474-0.73665s-0.58498-0.27726-0.90526-0.27726-0.63991 0.0979-0.90526 0.27726c-0.26539 0.17936-0.47538 0.43945-0.59478 0.73665-0.15846 0.39444-0.15178 0.85562 0.0334 1.2383 0.18515 0.38263 0.55001 0.67735 0.96663 0.76174zm1.0359-0.97703c-0.10348 0.10419-0.24042 0.17463-0.38536 0.19821-0.14494 0.0236-0.29714 0.00019-0.42831-0.0658-0.13117-0.066-0.24063-0.17433-0.30804-0.30479-0.0674-0.13046-0.0924-0.28241-0.0704-0.42759 0.0188-0.1237 0.0714-0.2421 0.15056-0.33896 0.0792-0.0969 0.18478-0.17193 0.30228-0.21491 0.11751-0.043 0.24661-0.0538 0.36961-0.0309s0.23958 0.0794 0.33375 0.16178z"/>
 </g>
</svg>
