<svg viewBox="0 0 16 16" style="enable-background:new" xmlns="http://www.w3.org/2000/svg">
 <path white-space="normal" mix-blend-mode="normal" d="m 2.5 2 c -0.814 0 -1.5 0.686 -1.5 1.5 l 0 8 c 0 0.814 0.686 1.5 1.5 1.5 l 11 0 c 0.814 0 1.5 -0.686 1.5 -1.5 l 0 -8 c 0 -0.814 -0.686 -1.5 -1.5 -1.5 l -11 0 m 0.5 2 10 0 0 7 -10 0 0 -7" isolation="auto" solid-opacity="1" style="visibility:visible;shape-rendering:auto;color-interpolation-filters:linearRGB;fill:#ececec;opacity:0.4;image-rendering:auto;fill-opacity:1;stroke:none;display:inline;color:#000;fill-rule:nonzero;color-rendering:auto;color-interpolation:sRGB" solid-color="#000000"/>
 <path style="fill:#ececec;opacity:0.4;fill-opacity:1;stroke:none;fill-rule:nonzero" d="m 0 14 0 1 c 0 0.554 0.669 1 1.5 1 l 13 0 c 0.831 0 1.5 -0.446 1.5 -1 l 0 -1 -6 0 0 1 -4 0 0 -1 z"/>
</svg>
