
<svg viewBox="0 0 16 16" xmlns="http://www.w3.org/2000/svg">
 <g transform="matrix(1 0 0 1 0 -1036.36)">
  <rect rx="0.472" ry="0.478" style="fill:#424242;opacity:1;fill-opacity:1;stroke:none;fill-rule:nonzero" width="12" x="2" y="1038.36" height="8"/>
  <rect x="3" y="1039.36" height="6" style="fill:#cecece;fill-opacity:1;stroke:none" width="10"/>
  <path d="m 15 1049.36 c 0 0.554 -0.446 1 -1 1 l -12 0 c -0.554 0 -1 -0.446 -1 -1 z" style="fill:#424242;fill-opacity:1;stroke:none"/>
  <path d="m 2 1046.36 -1 3 14 0 -1 -3 z" style="fill:#b5b5b5;fill-opacity:1;stroke:none"/>
  <path d="m 3 1046.86 -0.25 1 10.5 0 -0.25 -1 z" style="fill:#757575;fill-opacity:1;stroke:none"/>
  <path d="m 6 1048.36 0 0.5 4 0 0 -0.5 z" style="fill:#757575;fill-opacity:1;stroke:none"/>
  <rect x="10" y="1038.36" height="8" style="fill:#fff;opacity:0.4;fill-opacity:1;stroke:none;fill-rule:nonzero" width="2"/>
 </g>
</svg>
