<svg viewBox="0 0 64 64" xmlns="http://www.w3.org/2000/svg">
 <g transform="matrix(1 0 0 1 0 -988.36)">
  <rect rx="2" y="1001.36" x="9" style="fill:#424242;opacity:1;fill-opacity:1;stroke:none;fill-rule:nonzero" height="31" width="46"/>
  <rect y="1004.36" x="12" style="fill:#cecece;fill-opacity:1;stroke:none" height="25" width="40"/>
  <path d="m 4 1041.36 56 0 0 0.667 c 0 0.739 -1.189 1.333 -2.667 1.333 l -50.667 0 c -1.477 0 -2.667 -0.595 -2.667 -1.333 z" style="fill:#424242;fill-opacity:1;stroke:none"/>
  <path d="m 9 1032.36 -5 9 56 0 -5 -9 z" style="fill:#b5b5b5;fill-opacity:1;stroke:none"/>
  <path d="m 12 1033.36 -2 5 44 0 -2 -5 z" style="fill:#757575;fill-opacity:1;stroke:none"/>
  <path d="m 26 1039.36 0 1 12 0 0 -1 z" style="fill:#757575;fill-opacity:1;stroke:none"/>
  <rect y="1001.36" x="43" style="fill:#fff;opacity:0.4;fill-opacity:1;stroke:none;fill-rule:nonzero" height="31" width="5"/>
 </g>
</svg>
