<svg xmlns="http://www.w3.org/2000/svg" fill="#888" version="1.1" viewBox="0 0 16 16">
  <path d="m0 0h24v24h-24z" fill="none"/>
  <path stroke-width=".76376" d="m13.996 4.0044-1.996-0.0044 0.003-1.9999c0.002-1.0001-1.003-2.0034-2.005-2.0034h-3.998c-0.8633-0.0000464-1.9973 1.0033-1.9982 2.0016l-0.0018 2.0017h-1.9989c-1.0011 0-2.0011 1-2.0011 2v7c0 1 1 1.9991 1.9973 1.9992l12 0.000435c0.86333 0.000031 2.0159-1.1683 2.0146-2.0008l-0.011-6.9972c-0.001-1.0008-1.001-1.9951-2.005-1.9964zm-3.996-0.0044h-4v-2h4z"/>
</svg>
