<svg xmlns="http://www.w3.org/2000/svg" fill="#888" version="1.1" viewBox="0 0 16 16">
  <path d="m0 0h24v24h-24z" fill="none"/>
  <path stroke-width=".88893" d="m3.218 6.9235c1.2799 2.5158 3.3421 4.5695 5.8576 5.8585l1.9555-1.9558c0.24-0.24002 0.59555-0.32003 0.90666-0.21336 0.99554 0.32892 2.0711 0.50672 3.1733 0.50672 0.48888 0 0.88888 0.40004 0.88888 0.88898v3.1025c0 0.49-0.4 0.89-0.889 0.89-8.3464 0-15.111-6.7651-15.111-15.113 0-0.48894 0.39999-0.88898 0.88888-0.88898h3.1111c0.48888 0 0.88888 0.40004 0.88888 0.88898 0 1.1112 0.17778 2.178 0.50666 3.1737 0.097777 0.31114 0.026666 0.65784-0.22222 0.90676z"/>
</svg>
