<svg xmlns="http://www.w3.org/2000/svg" width="64" height="64" viewBox="0 0 48 48">
 <g>
  <path d="m 17.207 6.945 l 13.59 0 c 1.32 0 2.391 1.074 2.391 2.395 l 0 29.906 c 0 1.32 -1.07 2.391 -2.391 2.391 l -13.59 0 c -1.324 0 -2.395 -1.07 -2.395 -2.391 l 0 -29.906 c 0 -1.32 1.07 -2.395 2.395 -2.395 m 0 0" style="fill:#5aa9e0;fill-opacity:1;stroke:none;fill-rule:nonzero"/>
  <path d="m 18.75 41.06 l 10.5 -34.12 l 3.938 0 l 0 34.13 m -14.438 0" style="fill:#fcf5e3;fill-opacity:0.188;stroke:none;fill-rule:nonzero"/>
  <path d="m 22.957 39.438 l 2.086 0 c 0.875 0 1.582 0.707 1.582 1.582 c 0 0.871 -0.707 1.582 -1.582 1.582 l -2.086 0 c -0.875 0 -1.582 -0.711 -1.582 -1.582 c 0 -0.875 0.707 -1.582 1.582 -1.582 m 0 0" style="fill:#002a36;fill-opacity:1;stroke:none;fill-rule:nonzero"/>
  <path d="m 19.473 5.703 l 9.05 0 c 0.398 0 0.723 0.324 0.723 0.723 l 0 0.727 c 0 0.398 -0.324 0.723 -0.723 0.723 l -9.05 0 c -0.398 0 -0.723 -0.324 -0.723 -0.723 l 0 -0.727 c 0 -0.398 0.324 -0.723 0.723 -0.723 m 0 0" style="fill:#002a36;fill-opacity:1;stroke:none;fill-rule:nonzero"/>
  <path d="m 16.945 4.5 c -1.883 0 -3.445 1.523 -3.445 3.402 l 0 32.15 c 0 1.883 1.563 3.445 3.445 3.445 l 14.11 0 c 1.883 0 3.445 -1.563 3.445 -3.445 l 0 -32.15 c 0 -1.879 -1.563 -3.402 -3.445 -3.402 m -9.305 1.5 l 4.5 0 c 0.414 0 0.75 0.336 0.75 0.75 c 0 0.414 -0.336 0.75 -0.75 0.75 l -4.5 0 c -0.414 0 -0.75 -0.336 -0.75 -0.75 c 0 -0.414 0.336 -0.75 0.75 -0.75 m -5.25 3 l 15 0 l 0 30 l -15 0 m 7.5 1.125 c 0.621 0 1.125 0.504 1.125 1.125 c 0 0.621 -0.504 1.125 -1.125 1.125 c -0.621 0 -1.125 -0.504 -1.125 -1.125 c 0 -0.621 0.504 -1.125 1.125 -1.125 m 0 0" style="fill:#063642;fill-opacity:1;stroke:none;fill-rule:nonzero"/>
  <path d="m 28.5 4.5 l 3 0 l 0 39 l -3 0 m 0 -39" style="fill:#ede7d5;fill-opacity:0.149;stroke:none;fill-rule:nonzero"/>
 </g>
</svg>
