<svg xmlns="http://www.w3.org/2000/svg" viewBox="0 0 48 48">
 <rect width="32" height="22" x="8" y="13" rx="2" style="fill:#073642;fill-opacity:1;stroke:none"/>
 <rect width="24" height="18" x="12" y="15" style="fill:#93a1a1;fill-opacity:1;stroke:none"/>
 <rect width="2" height="2" x="9" y="15" rx="0.4" style="fill:#586e75;fill-opacity:1;stroke:none"/>
 <rect width="2" height="2" x="9" y="18.09" rx="0.4" style="fill:#586e75;fill-opacity:1;stroke:none"/>
 <rect width="2" height="2" x="37" y="15" rx="0.4" style="fill:#586e75;fill-opacity:1;stroke:none"/>
 <rect width="2" height="2" x="37" y="18.09" rx="0.4" style="fill:#586e75;fill-opacity:1;stroke:none"/>
 <rect width="4.119" height="22" x="33.96" y="13" style="fill:#fdf6e3;fill-opacity:0.217;stroke:none"/>
 <path d="m 43 33 -2 -3 0 -13 c 0 0 0 -1 1 -1 1 0 1 1 1 1 l 0 13 z" style="fill:#073642;fill-opacity:1;stroke:none"/>
 <rect width="4" height="1" x="-30" y="42" transform="matrix(0,-1,1,0,0,0)" style="fill:#586e75;fill-opacity:1;stroke:none"/>
</svg>
