<svg xmlns="http://www.w3.org/2000/svg" width="64" height="64" viewBox="0 0 48 48">
 <g>
  <path d="m 5.25 10.5 l 34.5 0 c 1.242 0 2.25 1.01 2.25 2.25 l 0 22.5 c 0 1.242 -1.01 2.25 -2.25 2.25 l -34.5 0 c -1.242 0 -2.25 -1.01 -2.25 -2.25 l 0 -22.5 c 0 -1.242 1.01 -2.25 2.25 -2.25 m 0 0" style="fill:#063642;fill-opacity:1;stroke:none;fill-rule:nonzero"/>
  <path d="m 7.5 13.5 l 30 0 l 0 21 l -30 0 m 0 -21" style="fill:#93a1a1;fill-opacity:1;stroke:none;fill-rule:nonzero"/>
  <path d="m 4.625 12.75 l 1.25 0 c 0.277 0 0.5 0.223 0.5 0.5 l 0 1.25 c 0 0.277 -0.223 0.5 -0.5 0.5 l -1.25 0 c -0.277 0 -0.5 -0.223 -0.5 -0.5 l 0 -1.25 c 0 -0.277 0.223 -0.5 0.5 -0.5 m 0 0" style="fill:#586e75;fill-opacity:1;stroke:none;fill-rule:nonzero"/>
  <path d="m 39.13 12.75 l 1.25 0 c 0.277 0 0.5 0.223 0.5 0.5 l 0 1.25 c 0 0.277 -0.223 0.5 -0.5 0.5 l -1.25 0 c -0.277 0 -0.5 -0.223 -0.5 -0.5 l 0 -1.25 c 0 -0.277 0.223 -0.5 0.5 -0.5 m 0 0" style="fill:#586e75;fill-opacity:1;stroke:none;fill-rule:nonzero"/>
  <path d="m 39.13 16.5 l 1.25 0 c 0.277 0 0.5 0.223 0.5 0.5 l 0 1.25 c 0 0.277 -0.223 0.5 -0.5 0.5 l -1.25 0 c -0.277 0 -0.5 -0.223 -0.5 -0.5 l 0 -1.25 c 0 -0.277 0.223 -0.5 0.5 -0.5 m 0 0" style="fill:#586e75;fill-opacity:1;stroke:none;fill-rule:nonzero"/>
  <path d="m 34.5 10.5 l 4.5 0 l 0 27 l -4.5 0 m 0 -27" style="fill:#fcf5e3;fill-opacity:0.216;stroke:none;fill-rule:nonzero"/>
  <path d="m 45.75 35.25 l -2.25 -3.75 l 0 -16.758 c 0 0 0 -1.242 1.125 -1.242 c 1.125 0 1.125 1.242 1.125 1.242 m 0 20.508" style="fill:#063642;fill-opacity:1;stroke:none;fill-rule:nonzero"/>
  <path d="m 44.625 31.5 l 0 -6 l 1.125 0 l 0 6 m -1.125 0" style="fill:#586e75;fill-opacity:1;stroke:none;fill-rule:nonzero"/>
  <path d="m 4.625 16.5 l 1.25 0 c 0.277 0 0.5 0.223 0.5 0.5 l 0 1.25 c 0 0.277 -0.223 0.5 -0.5 0.5 l -1.25 0 c -0.277 0 -0.5 -0.223 -0.5 -0.5 l 0 -1.25 c 0 -0.277 0.223 -0.5 0.5 -0.5 m 0 0" style="fill:#586e75;fill-opacity:1;stroke:none;fill-rule:nonzero"/>
 </g>
</svg>
