<?xml version="1.0" encoding="UTF-8"?>
<svg xmlns="http://www.w3.org/2000/svg" height="16px" viewBox="0 0 16 16" width="16px"><g fill="#222222"><path d="m 14 3.175781 v 3.824219 c 0 2.179688 -1.820312 4 -4 4 h -3.585938 l -2 2 h 5.585938 l 3 3 v -3 c 1.644531 0 3 -1.355469 3 -3 v -4 c 0 -1.292969 -0.839844 -2.40625 -2 -2.824219 z m 0 0"/><path d="m 3 0 c -1.644531 0 -3 1.355469 -3 3 v 4 c 0 1.644531 1.355469 3 3 3 v 3 l 3 -3 h 4 c 1.644531 0 3 -1.355469 3 -3 v -4 c 0 -1.644531 -1.355469 -3 -3 -3 z m 0 2 h 7 c 0.570312 0 1 0.429688 1 1 v 4 c 0 0.570312 -0.429688 1 -1 1 h -7 c -0.570312 0 -1 -0.429688 -1 -1 v -4 c 0 -0.570312 0.429688 -1 1 -1 z m 0 0"/><path d="m 3 3 h 7 v 1 h -7 z m 0 0"/><path d="m 3 5 h 4 v 1 h -4 z m 0 0"/></g></svg>
