<?xml version="1.0" encoding="UTF-8" standalone="no"?>
<svg
   xmlns:osb="http://openswatchbook.org/uri/2009/osb"
   xmlns:dc="http://purl.org/dc/elements/1.1"
   xmlns:cc="http://creativecommons.org/ns#"
   xmlns:rdf="http://w3.org/1999/02/22-rdf-syntax-ns#"
   xmlns:svg="http://w3.org/2000/svg"
   xmlns="http://w3.org/2000/svg"
   width="16"
   viewBox="0 0 16 16"
   version="1.1"
   id="svg7384"
   height="16">
  <metadata
     id="metadata90">
    <rdf:RDF>
      <cc:Work
         rdf:about="">
        <dc:format>image/svg+xml</dc:format>
        <dc:type
           rdf:resource="http://purl.org/dc/dcmitype/StillImage" />
        <dc:title>Gnome Symbolic Icon Theme</dc:title>
      </cc:Work>
    </rdf:RDF>
  </metadata>
  <title
     id="title9167">Gnome Symbolic Icon Theme</title>
  <defs
     id="defs7386">
    <linearGradient
       osb:paint="solid"
       id="linearGradient7212">
      <stop
         style="stop-color:#000000;stop-opacity:1;"
         offset="0"
         id="stop7214" />
    </linearGradient>
  </defs>
  <g
     transform="translate(-140.0004,-258)"
     style="display:inline"
     id="layer1" />
  <g
     transform="translate(-381.0006,109)"
     style="display:inline"
     id="layer9" />
  <g
     transform="translate(-381.0006,109)"
     style="display:inline"
     id="g7628" />
  <g
     transform="translate(-140.0004,-458)"
     id="layer13" />
  <g
     transform="translate(-140.0004,-258)"
     style="display:inline"
     id="layer11" />
  <g
     transform="translate(-140.0004,-458)"
     id="layer14" />
  <g
     transform="translate(-140.0004,-258)"
     style="display:inline"
     id="g6387">
    <path
       d="m 152.0004,259 c 1.662,0 3,1.338 3,3 v 6 c 0,1.662 -1.338,3 -3,3 h -8 c -1.662,0 -3,-1.338 -3,-3 v -6 c 0,-1.662 1.338,-3 3,-3 z m 0,2 h -8 c -0.554,0 -1,0.446 -1,1 v 6 c 0,0.554 0.446,1 1,1 h 8 c 0.554,0 1,-0.446 1,-1 v -6 c 0,-0.554 -0.446,-1 -1,-1 z"
       id="rect3773"
       style="fill:#2e3436;fill-opacity:1;stroke:none" />
    <path
       d="m 148.0004,272 c -5,0 -5,1 -5,1 0,1 1,1 1,1 h 8 c 1,0 1,-1 1,-1 0,0 0,-1 -5,-1 z"
       id="rect3778"
       style="fill:#2e3436;fill-opacity:1;stroke:none" />
  </g>
  <g
     transform="translate(-140.0004,-458)"
     id="layer18" />
  <g
     transform="translate(-140.0004,-458)"
     id="layer17" />
  <g
     transform="translate(-140.0004,-458)"
     id="layer16" />
  <g
     transform="translate(-140.0004,-258)"
     style="display:inline"
     id="layer10" />
  <g
     transform="translate(-140.0004,-458)"
     id="layer15" />
  <g
     transform="translate(-140.0004,-258)"
     id="layer12" />
</svg>
