<?xml version="1.0" encoding="UTF-8"?>
<svg width="16" height="16" xmlns="http://w3.org/2000/svg">
 <g color="#bebebe" fill="#2e3436">
  <path d="M11 4a2 2 0 0 0-2 2 2 2 0 0 0 2 2 2 2 0 0 0 2-2 2 2 0 0 0-2-2zm-1 5c-1.662 0-3 1.338-3 3v1c0 .554.446 1 1 1h6c.554 0 1-.446 1-1v-1c0-1.662-1.338-3-3-3z" overflow="visible"/>
  <path d="M5 2a2 2 0 0 0-2 2 2 2 0 0 0 2 2 2 2 0 0 0 2-2 2 2 0 0 0-2-2zM4 7c-1.662 0-3 1.338-3 3v1c0 .554.446 1 1 1h4c0-1.665 1.056-3.038 2.517-3.625A2.986 2.986 0 0 0 6 7zm5 3.268c-.6.34-1 .976-1 1.732.554 0 1-.446 1-1v-.25z" overflow="visible"/>
 </g>
</svg>
