<?xml version="1.0" encoding="UTF-8"?>
<svg xmlns="http://w3.org/2000/svg" height="16px" viewBox="0 0 16 16" width="16px"><path d="m 7.023438 0 c -2.753907 0 -5 2.246094 -5 5 v 6 c 0 2.753906 2.246093 5 5 5 h 1.96875 c 2.753906 0 5 -2.246094 5 -5 v -6 c 0 -2.753906 -2.246094 -5 -5 -5 z m 0 2 h 1.96875 c 1.679687 0 3 1.320312 3 3 v 6 c 0 1.679688 -1.320313 3 -3 3 h -1.96875 c -1.679688 0 -3 -1.320312 -3 -3 v -6 c 0 -1.679688 1.320312 -3 3 -3 z m 0.96875 1 c -0.554688 0 -1 0.445312 -1 1 v 2 c 0 0.554688 0.445312 1 1 1 c 0.554687 0 1 -0.445312 1 -1 v -2 c 0 -0.554688 -0.445313 -1 -1 -1 z m 0 0" fill="#2e3436"/></svg>
