<?xml version="1.0" encoding="UTF-8" standalone="no"?>
<svg
   height="16"
   viewBox="0 0 16 16"
   width="16"
   version="1.1"
   id="svg44"
   xmlns="http://w3.org/2000/svg"
   xmlns:svg="http://w3.org/2000/svg">
  <defs
     id="defs48" />
  <path
     d="m 7.023438,0 c -2.753907,0 -5,2.246094 -5,5 v 6 c 0,2.753906 2.246093,5 5,5 h 1.96875 c 2.753906,0 5,-2.246094 5,-5 V 5 c 0,-2.753906 -2.246094,-5 -5,-5 z m 0,2 h 1.96875 c 1.679687,0 3,1.320312 3,3 v 6 c 0,1.679688 -1.320313,3 -3,3 h -1.96875 c -1.679688,0 -3,-1.320312 -3,-3 V 5 c 0,-1.679688 1.320312,-3 3,-3 z M 7,3 C 6,3 5,4 5,5 V 7 H 7.992188 L 8,2.9841896 Z"
     fill="#2e3436"
     id="path42" />
</svg>
