<?xml version="1.0" encoding="UTF-8"?>
<svg height="128px" viewBox="0 0 128 128" width="128px" xmlns="http://w3.org/2000/svg" xmlns:xlink="http://w3.org/1999/xlink">
    <linearGradient id="a" gradientUnits="userSpaceOnUse" x1="19.999969" x2="107.999969" y1="37" y2="37">
        <stop offset="0" stop-color="#241f31"/>
        <stop offset="0.05" stop-color="#5e5c64"/>
        <stop offset="0.1" stop-color="#3d3846"/>
        <stop offset="0.899999" stop-color="#413e46"/>
        <stop offset="0.95" stop-color="#5e5c64"/>
        <stop offset="1" stop-color="#241f31"/>
    </linearGradient>
    <linearGradient id="b" gradientTransform="matrix(0.196428 0 0 0.171053 2.59726 198.870026)" gradientUnits="userSpaceOnUse" x1="88.595894" x2="536.596558" y1="-461.086243" y2="-461.086243">
        <stop offset="0" stop-color="#3d3846"/>
        <stop offset="0.05" stop-color="#77767b"/>
        <stop offset="0.1" stop-color="#5e5c64"/>
        <stop offset="0.899999" stop-color="#504e56"/>
        <stop offset="0.95" stop-color="#77767b"/>
        <stop offset="1" stop-color="#3d3846"/>
    </linearGradient>
    <linearGradient id="c" gradientUnits="userSpaceOnUse" x1="63.99973" x2="63.99973" y1="57.99911" y2="65.99911">
        <stop offset="0" stop-color="#5e5c64"/>
        <stop offset="0.3" stop-color="#5e5c64"/>
        <stop offset="1" stop-color="#3d3846"/>
    </linearGradient>
    <linearGradient id="d" gradientUnits="userSpaceOnUse" x1="98" x2="30" y1="14" y2="56">
        <stop offset="0" stop-color="#c061cb"/>
        <stop offset="1" stop-color="#1c71d8"/>
    </linearGradient>
    <linearGradient id="e" gradientUnits="userSpaceOnUse" x1="63.99973" x2="63.99973" y1="113.99911" y2="117.99911">
        <stop offset="0" stop-color="#3d3846"/>
        <stop offset="0.7" stop-color="#5e5c64"/>
        <stop offset="1" stop-color="#5e5c64"/>
    </linearGradient>
    <linearGradient id="f" gradientUnits="userSpaceOnUse">
        <stop offset="0" stop-color="#3d3846"/>
        <stop offset="1" stop-color="#5e5c64"/>
    </linearGradient>
    <linearGradient id="g" x1="26.99999266666" x2="26.99999266666" xlink:href="#f" y1="67.999978" y2="78.00000183331"/>
    <linearGradient id="h" x1="38.99999266666" x2="38.99999266666" xlink:href="#f" y1="67.999978" y2="78.00000183331"/>
    <linearGradient id="i" x1="50.99999266666" x2="50.99999266666" xlink:href="#f" y1="67.999978" y2="78.00000183331"/>
    <linearGradient id="j" x1="62.99999266666" x2="62.99999266666" xlink:href="#f" y1="67.999978" y2="78.00000183331"/>
    <linearGradient id="k" x1="74.99999666666" x2="74.99999666666" xlink:href="#f" y1="67.999978" y2="78.00000183331"/>
    <linearGradient id="l" x1="86.99999666666" x2="86.99999666666" xlink:href="#f" y1="67.999978" y2="78.00000183331"/>
    <linearGradient id="m" x1="98.99999666666" x2="98.99999666666" xlink:href="#f" y1="67.999978" y2="78.00000183331"/>
    <linearGradient id="n" x1="28.99999266666" x2="28.99999266666" xlink:href="#f" y1="80.999978" y2="91.00000183331"/>
    <linearGradient id="o" x1="40.99999266666" x2="40.99999266666" xlink:href="#f" y1="80.999978" y2="91.00000183331"/>
    <linearGradient id="p" x1="52.99999266666" x2="52.99999266666" xlink:href="#f" y1="80.999978" y2="91.00000183331"/>
    <linearGradient id="q" x1="64.99999266666" x2="64.99999266666" xlink:href="#f" y1="80.999978" y2="91.00000183331"/>
    <linearGradient id="r" x1="76.99999666666" x2="76.99999666666" xlink:href="#f" y1="80.999978" y2="91.00000183331"/>
    <linearGradient id="s" x1="88.99999666666" x2="88.99999666666" xlink:href="#f" y1="80.999978" y2="91.00000183331"/>
    <linearGradient id="t" x1="100.99999666666" x2="100.99999666666" xlink:href="#f" y1="80.999978" y2="91.00000183331"/>
    <linearGradient id="u" x1="26.99999266666" x2="26.99999266666" xlink:href="#f" y1="93.999978" y2="104.00000183331"/>
    <linearGradient id="v" x1="38.99999266666" x2="38.99999266666" xlink:href="#f" y1="93.999978" y2="104.00000183331"/>
    <linearGradient id="w" x1="62.99999666666" x2="62.99999666666" xlink:href="#f" y1="93.999978" y2="104.00000183331"/>
    <linearGradient id="x" x1="86.99999666666" x2="86.99999666666" xlink:href="#f" y1="93.999978" y2="104.00000183331"/>
    <linearGradient id="y" x1="98.99999666666" x2="98.99999666666" xlink:href="#f" y1="93.999978" y2="104.00000183331"/>
    <linearGradient id="z" gradientUnits="userSpaceOnUse" x1="92" x2="128" y1="124" y2="124">
        <stop offset="0" stop-color="#c0bfbc"/>
        <stop offset="0.0555556" stop-color="#f6f5f4"/>
        <stop offset="0.111111" stop-color="#deddda"/>
        <stop offset="0.888889" stop-color="#c0bfbc"/>
        <stop offset="0.944444" stop-color="#f6f5f4"/>
        <stop offset="1" stop-color="#c0bfbc"/>
    </linearGradient>
    <linearGradient id="A" gradientUnits="userSpaceOnUse" x1="120" x2="100" y1="79" y2="118">
        <stop offset="0" stop-color="#c061cb"/>
        <stop offset="1" stop-color="#ff7800"/>
    </linearGradient>
    <path d="m 28 10 h 72 c 4.417969 0 8 3.582031 8 8 v 38 c 0 4.417969 -3.582031 8 -8 8 h -72 c -4.417969 0 -8 -3.582031 -8 -8 v -38 c 0 -4.417969 3.582031 -8 8 -8 z m 0 0" fill="url(#a)"/>
    <path d="m 28 70 h 72 c 4.417969 0 8 3.582031 8 8 v 34 c 0 4.417969 -3.582031 8 -8 8 h -72 c -4.417969 0 -8 -3.582031 -8 -8 v -34 c 0 -4.417969 3.582031 -8 8 -8 z m 0 0" fill="url(#b)"/>
    <path d="m 28 62 h 72 c 4.417969 0 8 3.582031 8 8 v 38 c 0 4.417969 -3.582031 8 -8 8 h -72 c -4.417969 0 -8 -3.582031 -8 -8 v -38 c 0 -4.417969 3.582031 -8 8 -8 z m 0 0" fill="#77767b"/>
    <path d="m 32 58 h 64 c 2.207031 0 4 1.71875 4 3.835938 v 0.324218 c 0 2.121094 -1.792969 3.839844 -4 3.839844 h -64 c -2.210938 0 -4 -1.71875 -4 -3.839844 v -0.324218 c 0 -2.117188 1.789062 -3.835938 4 -3.835938 z m 0 0" fill="url(#c)"/>
    <path d="m 28 8 h 72 c 4.417969 0 8 3.582031 8 8 v 38 c 0 4.417969 -3.582031 8 -8 8 h -72 c -4.417969 0 -8 -3.582031 -8 -8 v -38 c 0 -4.417969 3.582031 -8 8 -8 z m 0 0" fill="#5e5c64"/>
    <path d="m 28 10 h 72 c 3.3125 0 6 2.6875 6 6 v 38 c 0 3.3125 -2.6875 6 -6 6 h -72 c -3.3125 0 -6 -2.6875 -6 -6 v -38 c 0 -3.3125 2.6875 -6 6 -6 z m 0 0"/>
    <path d="m 28 12 h 72 c 2.210938 0 4 1.789062 4 4 v 38 c 0 2.210938 -1.789062 4 -4 4 h -72 c -2.210938 0 -4 -1.789062 -4 -4 v -38 c 0 -2.210938 1.789062 -4 4 -4 z m 0 0" fill="url(#d)"/>
    <path d="m 50 114 h 28 c 1.105469 0 2 0.894531 2 2 s -0.894531 2 -2 2 h -28 c -1.105469 0 -2 -0.894531 -2 -2 s 0.894531 -2 2 -2 z m 0 0" fill="url(#e)"/>
    <path d="m 24 69 h 6 c 1.105469 0 2 0.894531 2 2 v 6 c 0 1.105469 -0.894531 2 -2 2 h -6 c -1.105469 0 -2 -0.894531 -2 -2 v -6 c 0 -1.105469 0.894531 -2 2 -2 z m 0 0" fill="#241f31"/>
    <path d="m 24 68 h 6 c 1.105469 0 2 0.894531 2 2 v 6 c 0 1.105469 -0.894531 2 -2 2 h -6 c -1.105469 0 -2 -0.894531 -2 -2 v -6 c 0 -1.105469 0.894531 -2 2 -2 z m 0 0" fill="url(#g)"/>
    <path d="m 36 69 h 6 c 1.105469 0 2 0.894531 2 2 v 6 c 0 1.105469 -0.894531 2 -2 2 h -6 c -1.105469 0 -2 -0.894531 -2 -2 v -6 c 0 -1.105469 0.894531 -2 2 -2 z m 0 0" fill="#241f31"/>
    <path d="m 36 68 h 6 c 1.105469 0 2 0.894531 2 2 v 6 c 0 1.105469 -0.894531 2 -2 2 h -6 c -1.105469 0 -2 -0.894531 -2 -2 v -6 c 0 -1.105469 0.894531 -2 2 -2 z m 0 0" fill="url(#h)"/>
    <path d="m 48 69 h 6 c 1.105469 0 2 0.894531 2 2 v 6 c 0 1.105469 -0.894531 2 -2 2 h -6 c -1.105469 0 -2 -0.894531 -2 -2 v -6 c 0 -1.105469 0.894531 -2 2 -2 z m 0 0" fill="#241f31"/>
    <path d="m 48 68 h 6 c 1.105469 0 2 0.894531 2 2 v 6 c 0 1.105469 -0.894531 2 -2 2 h -6 c -1.105469 0 -2 -0.894531 -2 -2 v -6 c 0 -1.105469 0.894531 -2 2 -2 z m 0 0" fill="url(#i)"/>
    <path d="m 60 69 h 6 c 1.105469 0 2 0.894531 2 2 v 6 c 0 1.105469 -0.894531 2 -2 2 h -6 c -1.105469 0 -2 -0.894531 -2 -2 v -6 c 0 -1.105469 0.894531 -2 2 -2 z m 0 0" fill="#241f31"/>
    <path d="m 60 68 h 6 c 1.105469 0 2 0.894531 2 2 v 6 c 0 1.105469 -0.894531 2 -2 2 h -6 c -1.105469 0 -2 -0.894531 -2 -2 v -6 c 0 -1.105469 0.894531 -2 2 -2 z m 0 0" fill="url(#j)"/>
    <path d="m 72 69 h 6 c 1.105469 0 2 0.894531 2 2 v 6 c 0 1.105469 -0.894531 2 -2 2 h -6 c -1.105469 0 -2 -0.894531 -2 -2 v -6 c 0 -1.105469 0.894531 -2 2 -2 z m 0 0" fill="#241f31"/>
    <path d="m 72 68 h 6 c 1.105469 0 2 0.894531 2 2 v 6 c 0 1.105469 -0.894531 2 -2 2 h -6 c -1.105469 0 -2 -0.894531 -2 -2 v -6 c 0 -1.105469 0.894531 -2 2 -2 z m 0 0" fill="url(#k)"/>
    <path d="m 84 69 h 6 c 1.105469 0 2 0.894531 2 2 v 6 c 0 1.105469 -0.894531 2 -2 2 h -6 c -1.105469 0 -2 -0.894531 -2 -2 v -6 c 0 -1.105469 0.894531 -2 2 -2 z m 0 0" fill="#241f31"/>
    <path d="m 84 68 h 6 c 1.105469 0 2 0.894531 2 2 v 6 c 0 1.105469 -0.894531 2 -2 2 h -6 c -1.105469 0 -2 -0.894531 -2 -2 v -6 c 0 -1.105469 0.894531 -2 2 -2 z m 0 0" fill="url(#l)"/>
    <path d="m 96 69 h 6 c 1.105469 0 2 0.894531 2 2 v 6 c 0 1.105469 -0.894531 2 -2 2 h -6 c -1.105469 0 -2 -0.894531 -2 -2 v -6 c 0 -1.105469 0.894531 -2 2 -2 z m 0 0" fill="#241f31"/>
    <path d="m 96 68 h 6 c 1.105469 0 2 0.894531 2 2 v 6 c 0 1.105469 -0.894531 2 -2 2 h -6 c -1.105469 0 -2 -0.894531 -2 -2 v -6 c 0 -1.105469 0.894531 -2 2 -2 z m 0 0" fill="url(#m)"/>
    <path d="m 26 82 h 6 c 1.105469 0 2 0.894531 2 2 v 6 c 0 1.105469 -0.894531 2 -2 2 h -6 c -1.105469 0 -2 -0.894531 -2 -2 v -6 c 0 -1.105469 0.894531 -2 2 -2 z m 0 0" fill="#241f31"/>
    <path d="m 26 81 h 6 c 1.105469 0 2 0.894531 2 2 v 6 c 0 1.105469 -0.894531 2 -2 2 h -6 c -1.105469 0 -2 -0.894531 -2 -2 v -6 c 0 -1.105469 0.894531 -2 2 -2 z m 0 0" fill="url(#n)"/>
    <path d="m 38 82 h 6 c 1.105469 0 2 0.894531 2 2 v 6 c 0 1.105469 -0.894531 2 -2 2 h -6 c -1.105469 0 -2 -0.894531 -2 -2 v -6 c 0 -1.105469 0.894531 -2 2 -2 z m 0 0" fill="#241f31"/>
    <path d="m 38 81 h 6 c 1.105469 0 2 0.894531 2 2 v 6 c 0 1.105469 -0.894531 2 -2 2 h -6 c -1.105469 0 -2 -0.894531 -2 -2 v -6 c 0 -1.105469 0.894531 -2 2 -2 z m 0 0" fill="url(#o)"/>
    <path d="m 50 82 h 6 c 1.105469 0 2 0.894531 2 2 v 6 c 0 1.105469 -0.894531 2 -2 2 h -6 c -1.105469 0 -2 -0.894531 -2 -2 v -6 c 0 -1.105469 0.894531 -2 2 -2 z m 0 0" fill="#241f31"/>
    <path d="m 50 81 h 6 c 1.105469 0 2 0.894531 2 2 v 6 c 0 1.105469 -0.894531 2 -2 2 h -6 c -1.105469 0 -2 -0.894531 -2 -2 v -6 c 0 -1.105469 0.894531 -2 2 -2 z m 0 0" fill="url(#p)"/>
    <path d="m 62 82 h 6 c 1.105469 0 2 0.894531 2 2 v 6 c 0 1.105469 -0.894531 2 -2 2 h -6 c -1.105469 0 -2 -0.894531 -2 -2 v -6 c 0 -1.105469 0.894531 -2 2 -2 z m 0 0" fill="#241f31"/>
    <path d="m 62 81 h 6 c 1.105469 0 2 0.894531 2 2 v 6 c 0 1.105469 -0.894531 2 -2 2 h -6 c -1.105469 0 -2 -0.894531 -2 -2 v -6 c 0 -1.105469 0.894531 -2 2 -2 z m 0 0" fill="url(#q)"/>
    <path d="m 74 82 h 6 c 1.105469 0 2 0.894531 2 2 v 6 c 0 1.105469 -0.894531 2 -2 2 h -6 c -1.105469 0 -2 -0.894531 -2 -2 v -6 c 0 -1.105469 0.894531 -2 2 -2 z m 0 0" fill="#241f31"/>
    <path d="m 74 81 h 6 c 1.105469 0 2 0.894531 2 2 v 6 c 0 1.105469 -0.894531 2 -2 2 h -6 c -1.105469 0 -2 -0.894531 -2 -2 v -6 c 0 -1.105469 0.894531 -2 2 -2 z m 0 0" fill="url(#r)"/>
    <path d="m 86 82 h 6 c 1.105469 0 2 0.894531 2 2 v 6 c 0 1.105469 -0.894531 2 -2 2 h -6 c -1.105469 0 -2 -0.894531 -2 -2 v -6 c 0 -1.105469 0.894531 -2 2 -2 z m 0 0" fill="#241f31"/>
    <path d="m 86 81 h 6 c 1.105469 0 2 0.894531 2 2 v 6 c 0 1.105469 -0.894531 2 -2 2 h -6 c -1.105469 0 -2 -0.894531 -2 -2 v -6 c 0 -1.105469 0.894531 -2 2 -2 z m 0 0" fill="url(#s)"/>
    <path d="m 98 82 h 6 c 1.105469 0 2 0.894531 2 2 v 6 c 0 1.105469 -0.894531 2 -2 2 h -6 c -1.105469 0 -2 -0.894531 -2 -2 v -6 c 0 -1.105469 0.894531 -2 2 -2 z m 0 0" fill="#241f31"/>
    <path d="m 98 81 h 6 c 1.105469 0 2 0.894531 2 2 v 6 c 0 1.105469 -0.894531 2 -2 2 h -6 c -1.105469 0 -2 -0.894531 -2 -2 v -6 c 0 -1.105469 0.894531 -2 2 -2 z m 0 0" fill="url(#t)"/>
    <path d="m 24 95 h 6 c 1.105469 0 2 0.894531 2 2 v 6 c 0 1.105469 -0.894531 2 -2 2 h -6 c -1.105469 0 -2 -0.894531 -2 -2 v -6 c 0 -1.105469 0.894531 -2 2 -2 z m 0 0" fill="#241f31"/>
    <path d="m 24 94 h 6 c 1.105469 0 2 0.894531 2 2 v 6 c 0 1.105469 -0.894531 2 -2 2 h -6 c -1.105469 0 -2 -0.894531 -2 -2 v -6 c 0 -1.105469 0.894531 -2 2 -2 z m 0 0" fill="url(#u)"/>
    <path d="m 36 95 h 6 c 1.105469 0 2 0.894531 2 2 v 6 c 0 1.105469 -0.894531 2 -2 2 h -6 c -1.105469 0 -2 -0.894531 -2 -2 v -6 c 0 -1.105469 0.894531 -2 2 -2 z m 0 0" fill="#241f31"/>
    <path d="m 36 94 h 6 c 1.105469 0 2 0.894531 2 2 v 6 c 0 1.105469 -0.894531 2 -2 2 h -6 c -1.105469 0 -2 -0.894531 -2 -2 v -6 c 0 -1.105469 0.894531 -2 2 -2 z m 0 0" fill="url(#v)"/>
    <path d="m 48 95 h 30 c 1.105469 0 2 0.894531 2 2 v 6 c 0 1.105469 -0.894531 2 -2 2 h -30 c -1.105469 0 -2 -0.894531 -2 -2 v -6 c 0 -1.105469 0.894531 -2 2 -2 z m 0 0" fill="#241f31"/>
    <path d="m 48 94 h 30 c 1.105469 0 2 0.894531 2 2 v 6 c 0 1.105469 -0.894531 2 -2 2 h -30 c -1.105469 0 -2 -0.894531 -2 -2 v -6 c 0 -1.105469 0.894531 -2 2 -2 z m 0 0" fill="url(#w)"/>
    <path d="m 84 95 h 6 c 1.105469 0 2 0.894531 2 2 v 6 c 0 1.105469 -0.894531 2 -2 2 h -6 c -1.105469 0 -2 -0.894531 -2 -2 v -6 c 0 -1.105469 0.894531 -2 2 -2 z m 0 0" fill="#241f31"/>
    <path d="m 84 94 h 6 c 1.105469 0 2 0.894531 2 2 v 6 c 0 1.105469 -0.894531 2 -2 2 h -6 c -1.105469 0 -2 -0.894531 -2 -2 v -6 c 0 -1.105469 0.894531 -2 2 -2 z m 0 0" fill="url(#x)"/>
    <path d="m 96 95 h 6 c 1.105469 0 2 0.894531 2 2 v 6 c 0 1.105469 -0.894531 2 -2 2 h -6 c -1.105469 0 -2 -0.894531 -2 -2 v -6 c 0 -1.105469 0.894531 -2 2 -2 z m 0 0" fill="#241f31"/>
    <path d="m 96 94 h 6 c 1.105469 0 2 0.894531 2 2 v 6 c 0 1.105469 -0.894531 2 -2 2 h -6 c -1.105469 0 -2 -0.894531 -2 -2 v -6 c 0 -1.105469 0.894531 -2 2 -2 z m 0 0" fill="url(#y)"/>
    <path d="m 98 109 h 24 c 2.210938 0 4 1.789062 4 4 v 9 c 0 2.210938 -1.789062 4 -4 4 h -24 c -2.210938 0 -4 -1.789062 -4 -4 v -9 c 0 -2.210938 1.789062 -4 4 -4 z m 0 0" fill="#464153"/>
    <path d="m 96 88 h 28 c 2.210938 0 4 1.789062 4 4 v 32 c 0 2.210938 -1.789062 4 -4 4 h -28 c -2.210938 0 -4 -1.789062 -4 -4 v -32 c 0 -2.210938 1.789062 -4 4 -4 z m 0 0" fill="url(#z)"/>
    <path d="m 96 72 h 28 c 2.210938 0 4 1.789062 4 4 v 42 c 0 2.210938 -1.789062 4 -4 4 h -28 c -2.210938 0 -4 -1.789062 -4 -4 v -42 c 0 -2.210938 1.789062 -4 4 -4 z m 0 0" fill="#f6f5f4"/>
    <path d="m 108 124 h 4 c 0.550781 0 1 0.449219 1 1 s -0.449219 1 -1 1 h -4 c -0.550781 0 -1 -0.449219 -1 -1 s 0.449219 -1 1 -1 z m 0 0" fill="#241f31"/>
    <path d="m 96 77 h 28 c 1.105469 0 2 0.894531 2 2 v 39 c 0 1.105469 -0.894531 2 -2 2 h -28 c -1.105469 0 -2 -0.894531 -2 -2 v -39 c 0 -1.105469 0.894531 -2 2 -2 z m 0 0" fill="url(#A)"/>
    <g fill="#241f31">
        <path d="m 100.75 125 c 0 0.414062 -0.335938 0.75 -0.75 0.75 s -0.75 -0.335938 -0.75 -0.75 s 0.335938 -0.75 0.75 -0.75 s 0.75 0.335938 0.75 0.75 z m 0 0"/>
        <path d="m 103 125 c 0 0.414062 -0.335938 0.75 -0.75 0.75 s -0.75 -0.335938 -0.75 -0.75 s 0.335938 -0.75 0.75 -0.75 s 0.75 0.335938 0.75 0.75 z m 0 0"/>
        <path d="m 105.25 125 c 0 0.414062 -0.335938 0.75 -0.75 0.75 s -0.75 -0.335938 -0.75 -0.75 s 0.335938 -0.75 0.75 -0.75 s 0.75 0.335938 0.75 0.75 z m 0 0"/>
    </g>
    <path d="m 107.03125 124.75 c -0.019531 0.078125 -0.03125 0.164062 -0.03125 0.25 c 0 0.554688 0.445312 1 1 1 h 4 c 0.554688 0 1 -0.445312 1 -1 c 0 -0.085938 -0.011719 -0.171875 -0.03125 -0.25 c -0.109375 0.433594 -0.5 0.75 -0.96875 0.75 h -4 c -0.46875 0 -0.859375 -0.316406 -0.96875 -0.75 z m 0 0" fill="#9a9996"/>
    <path d="m 100.734375 124.851562 c -0.050781 0.367188 -0.363281 0.644532 -0.734375 0.648438 c -0.363281 -0.003906 -0.671875 -0.265625 -0.730469 -0.625 c -0.011719 0.042969 -0.015625 0.082031 -0.019531 0.125 c 0 0.414062 0.335938 0.75 0.75 0.75 s 0.75 -0.335938 0.75 -0.75 c 0 -0.050781 -0.003906 -0.097656 -0.015625 -0.148438 z m 2.25 0 c -0.050781 0.367188 -0.363281 0.644532 -0.734375 0.648438 c -0.363281 -0.003906 -0.671875 -0.265625 -0.730469 -0.625 c -0.011719 0.042969 -0.015625 0.082031 -0.019531 0.125 c 0 0.414062 0.335938 0.75 0.75 0.75 s 0.75 -0.335938 0.75 -0.75 c 0 -0.050781 -0.003906 -0.097656 -0.015625 -0.148438 z m 2.25 0 c -0.050781 0.367188 -0.363281 0.644532 -0.734375 0.648438 c -0.363281 -0.003906 -0.671875 -0.265625 -0.730469 -0.625 c -0.011719 0.042969 -0.015625 0.082031 -0.019531 0.125 c 0 0.414062 0.335938 0.75 0.75 0.75 s 0.75 -0.335938 0.75 -0.75 c 0 -0.050781 -0.003906 -0.097656 -0.015625 -0.148438 z m 0 0" fill="#9a9996"/>
    <path d="m 116.75 125 c 0 0.414062 -0.335938 0.75 -0.75 0.75 s -0.75 -0.335938 -0.75 -0.75 s 0.335938 -0.75 0.75 -0.75 s 0.75 0.335938 0.75 0.75 z m 0 0" fill="#241f31"/>
    <path d="m 119 125 c 0 0.414062 -0.335938 0.75 -0.75 0.75 s -0.75 -0.335938 -0.75 -0.75 s 0.335938 -0.75 0.75 -0.75 s 0.75 0.335938 0.75 0.75 z m 0 0" fill="#241f31"/>
    <path d="m 121.25 125 c 0 0.414062 -0.335938 0.75 -0.75 0.75 s -0.75 -0.335938 -0.75 -0.75 s 0.335938 -0.75 0.75 -0.75 s 0.75 0.335938 0.75 0.75 z m 0 0" fill="#241f31"/>
    <path d="m 116.734375 124.851562 c -0.050781 0.367188 -0.363281 0.644532 -0.734375 0.648438 c -0.363281 -0.003906 -0.671875 -0.265625 -0.730469 -0.625 c -0.011719 0.042969 -0.015625 0.082031 -0.019531 0.125 c 0 0.414062 0.335938 0.75 0.75 0.75 s 0.75 -0.335938 0.75 -0.75 c 0 -0.050781 -0.003906 -0.097656 -0.015625 -0.148438 z m 2.25 0 c -0.050781 0.367188 -0.363281 0.644532 -0.734375 0.648438 c -0.363281 -0.003906 -0.671875 -0.265625 -0.730469 -0.625 c -0.011719 0.042969 -0.015625 0.082031 -0.019531 0.125 c 0 0.414062 0.335938 0.75 0.75 0.75 s 0.75 -0.335938 0.75 -0.75 c 0 -0.050781 -0.003906 -0.097656 -0.015625 -0.148438 z m 2.25 0 c -0.050781 0.367188 -0.363281 0.644532 -0.734375 0.648438 c -0.363281 -0.003906 -0.671875 -0.265625 -0.730469 -0.625 c -0.011719 0.042969 -0.015625 0.082031 -0.019531 0.125 c 0 0.414062 0.335938 0.75 0.75 0.75 s 0.75 -0.335938 0.75 -0.75 c 0 -0.050781 -0.003906 -0.097656 -0.015625 -0.148438 z m 0 0" fill="#9a9996"/>
    <path d="m 119 74.5 c 0 0.550781 -0.449219 1 -1 1 s -1 -0.449219 -1 -1 s 0.449219 -1 1 -1 s 1 0.449219 1 1 z m 0 0"/>
    <path d="m 107.5 74 h 5 c 0.277344 0 0.5 0.222656 0.5 0.5 s -0.222656 0.5 -0.5 0.5 h -5 c -0.277344 0 -0.5 -0.222656 -0.5 -0.5 s 0.222656 -0.5 0.5 -0.5 z m 0 0"/>
</svg>
