<?xml version="1.0" encoding="UTF-8"?>
<svg height="128px" viewBox="0 0 128 128" width="128px" xmlns="http://www.w3.org/2000/svg" xmlns:xlink="http://www.w3.org/1999/xlink">
    <linearGradient id="a" gradientTransform="matrix(0.196428 0 0 0.342105 2.59731 273.740936)" gradientUnits="userSpaceOnUse" x1="88.595886" x2="536.595886" y1="-449.394012" y2="-449.394012">
        <stop offset="0" stop-color="#3d3846"/>
        <stop offset="0.05" stop-color="#77767b"/>
        <stop offset="0.1" stop-color="#5e5c64"/>
        <stop offset="0.899999" stop-color="#504e56"/>
        <stop offset="0.95" stop-color="#77767b"/>
        <stop offset="1" stop-color="#3d3846"/>
    </linearGradient>
    <linearGradient id="b" gradientUnits="userSpaceOnUse" x1="96" x2="32" y1="16" y2="52">
        <stop offset="0" stop-color="#c061cb"/>
        <stop offset="1" stop-color="#1c71d8"/>
    </linearGradient>
    <linearGradient id="c" gradientUnits="userSpaceOnUse">
        <stop offset="0" stop-color="#3d3846"/>
        <stop offset="0.7" stop-color="#5e5c64"/>
        <stop offset="1" stop-color="#5e5c64"/>
    </linearGradient>
    <linearGradient id="d" x1="64" x2="64" xlink:href="#c" y1="110" y2="114"/>
    <linearGradient id="e" x1="64" x2="64" xlink:href="#c" y1="60" y2="68"/>
    <linearGradient id="f" gradientUnits="userSpaceOnUse">
        <stop offset="0" stop-color="#3d3846"/>
        <stop offset="1" stop-color="#5e5c64"/>
    </linearGradient>
    <linearGradient id="g" x1="28" x2="28" xlink:href="#f" y1="70" y2="78"/>
    <linearGradient id="h" x1="38" x2="38" xlink:href="#f" y1="70" y2="78"/>
    <linearGradient id="i" x1="48" x2="48" xlink:href="#f" y1="70" y2="78"/>
    <linearGradient id="j" x1="58" x2="58" xlink:href="#f" y1="70" y2="78"/>
    <linearGradient id="k" x1="68" x2="68" xlink:href="#f" y1="70" y2="78"/>
    <linearGradient id="l" x1="78" x2="78" xlink:href="#f" y1="70" y2="78"/>
    <linearGradient id="m" x1="88" x2="88" xlink:href="#f" y1="70" y2="78"/>
    <linearGradient id="n" x1="98" x2="98" xlink:href="#f" y1="70" y2="78"/>
    <linearGradient id="o" x1="40" x2="40" xlink:href="#f" y1="82" y2="90"/>
    <linearGradient id="p" x1="50" x2="50" xlink:href="#f" y1="82" y2="90"/>
    <linearGradient id="q" x1="60" x2="60" xlink:href="#f" y1="82" y2="90"/>
    <linearGradient id="r" x1="70" x2="70" xlink:href="#f" y1="82" y2="90"/>
    <linearGradient id="s" x1="80" x2="80" xlink:href="#f" y1="82" y2="90"/>
    <linearGradient id="t" x1="95" x2="95" xlink:href="#f" y1="82" y2="90"/>
    <linearGradient id="u" x1="28" x2="28" xlink:href="#f" y1="94" y2="102"/>
    <linearGradient id="v" x1="38" x2="38" xlink:href="#f" y1="94" y2="102"/>
    <linearGradient id="w" x1="63" x2="63" xlink:href="#f" y1="94" y2="102"/>
    <linearGradient id="x" x1="88" x2="88" xlink:href="#f" y1="94" y2="102"/>
    <linearGradient id="y" x1="98" x2="98" xlink:href="#f" y1="94" y2="102"/>
    <linearGradient id="z" x1="30" x2="30" xlink:href="#f" y1="82" y2="90"/>
    <linearGradient id="A" gradientUnits="userSpaceOnUse" x1="91.2817175" x2="127.930382" y1="124.7500915" y2="124.7500915">
        <stop offset="0" stop-color="#c0bfbc"/>
        <stop offset="0.0557713" stop-color="#f6f5f4"/>
        <stop offset="0.115081" stop-color="#deddda"/>
        <stop offset="0.844546" stop-color="#c0bfbc"/>
        <stop offset="0.932276" stop-color="#f6f5f4"/>
        <stop offset="1" stop-color="#c0bfbc"/>
    </linearGradient>
    <linearGradient id="B" gradientUnits="userSpaceOnUse" x1="120" x2="100" y1="79" y2="118">
        <stop offset="0" stop-color="#c061cb"/>
        <stop offset="1" stop-color="#ff7800"/>
    </linearGradient>
    <path d="m 28 16 h 72 c 4.417969 0 8 3.582031 8 8 v 88 c 0 4.417969 -3.582031 8 -8 8 h -72 c -4.417969 0 -8 -3.582031 -8 -8 v -88 c 0 -4.417969 3.582031 -8 8 -8 z m 0 0" fill="url(#a)"/>
    <path d="m 28 8 h 72 c 4.417969 0 8 3.582031 8 8 v 88 c 0 4.417969 -3.582031 8 -8 8 h -72 c -4.417969 0 -8 -3.582031 -8 -8 v -88 c 0 -4.417969 3.582031 -8 8 -8 z m 0 0" fill="#77767b"/>
    <path d="m 28 8 h 72 c 4.433594 0 8 3.570312 8 8 v 48 h -88 v -48 c 0 -4.429688 3.566406 -8 8 -8 z m 0 0" fill="#5e5c64"/>
    <path d="m 26 12 h 76 c 1.105469 0 2 0.894531 2 2 v 40 c 0 1.105469 -0.894531 2 -2 2 h -76 c -1.105469 0 -2 -0.894531 -2 -2 v -40 c 0 -1.105469 0.894531 -2 2 -2 z m 0 0"/>
    <path d="m 26 14 h 76 v 40 h -76 z m 0 0" fill="url(#b)"/>
    <path d="m 50 110 h 28 c 1.105469 0 2 0.894531 2 2 s -0.894531 2 -2 2 h -28 c -1.105469 0 -2 -0.894531 -2 -2 s 0.894531 -2 2 -2 z m 0 0" fill="url(#d)"/>
    <path d="m 32 60 h 64 c 2.210938 0 4 1.71875 4 3.839844 v 0.320312 c 0 2.121094 -1.789062 3.839844 -4 3.839844 h -64 c -2.210938 0 -4 -1.71875 -4 -3.839844 v -0.320312 c 0 -2.121094 1.789062 -3.839844 4 -3.839844 z m 0 0" fill="url(#e)"/>
    <path d="m 20 60 h 88 v 4 h -88 z m 0 0" fill="url(#e)"/>
    <path d="m 65 10 c 0 0.550781 -0.449219 1 -1 1 s -1 -0.449219 -1 -1 s 0.449219 -1 1 -1 s 1 0.449219 1 1 z m 0 0"/>
    <path d="m 26 72 h 4 c 1.105469 0 2 0.894531 2 2 v 4 c 0 1.105469 -0.894531 2 -2 2 h -4 c -1.105469 0 -2 -0.894531 -2 -2 v -4 c 0 -1.105469 0.894531 -2 2 -2 z m 0 0" fill="#241f31"/>
    <path d="m 26 70 h 4 c 1.105469 0 2 0.894531 2 2 v 4 c 0 1.105469 -0.894531 2 -2 2 h -4 c -1.105469 0 -2 -0.894531 -2 -2 v -4 c 0 -1.105469 0.894531 -2 2 -2 z m 0 0" fill="url(#g)"/>
    <path d="m 36 72 h 4 c 1.105469 0 2 0.894531 2 2 v 4 c 0 1.105469 -0.894531 2 -2 2 h -4 c -1.105469 0 -2 -0.894531 -2 -2 v -4 c 0 -1.105469 0.894531 -2 2 -2 z m 0 0" fill="#241f31"/>
    <path d="m 36 70 h 4 c 1.105469 0 2 0.894531 2 2 v 4 c 0 1.105469 -0.894531 2 -2 2 h -4 c -1.105469 0 -2 -0.894531 -2 -2 v -4 c 0 -1.105469 0.894531 -2 2 -2 z m 0 0" fill="url(#h)"/>
    <path d="m 46 72 h 4 c 1.105469 0 2 0.894531 2 2 v 4 c 0 1.105469 -0.894531 2 -2 2 h -4 c -1.105469 0 -2 -0.894531 -2 -2 v -4 c 0 -1.105469 0.894531 -2 2 -2 z m 0 0" fill="#241f31"/>
    <path d="m 46 70 h 4 c 1.105469 0 2 0.894531 2 2 v 4 c 0 1.105469 -0.894531 2 -2 2 h -4 c -1.105469 0 -2 -0.894531 -2 -2 v -4 c 0 -1.105469 0.894531 -2 2 -2 z m 0 0" fill="url(#i)"/>
    <path d="m 56 72 h 4 c 1.105469 0 2 0.894531 2 2 v 4 c 0 1.105469 -0.894531 2 -2 2 h -4 c -1.105469 0 -2 -0.894531 -2 -2 v -4 c 0 -1.105469 0.894531 -2 2 -2 z m 0 0" fill="#241f31"/>
    <path d="m 56 70 h 4 c 1.105469 0 2 0.894531 2 2 v 4 c 0 1.105469 -0.894531 2 -2 2 h -4 c -1.105469 0 -2 -0.894531 -2 -2 v -4 c 0 -1.105469 0.894531 -2 2 -2 z m 0 0" fill="url(#j)"/>
    <path d="m 66 72 h 4 c 1.105469 0 2 0.894531 2 2 v 4 c 0 1.105469 -0.894531 2 -2 2 h -4 c -1.105469 0 -2 -0.894531 -2 -2 v -4 c 0 -1.105469 0.894531 -2 2 -2 z m 0 0" fill="#241f31"/>
    <path d="m 66 70 h 4 c 1.105469 0 2 0.894531 2 2 v 4 c 0 1.105469 -0.894531 2 -2 2 h -4 c -1.105469 0 -2 -0.894531 -2 -2 v -4 c 0 -1.105469 0.894531 -2 2 -2 z m 0 0" fill="url(#k)"/>
    <path d="m 76 72 h 4 c 1.105469 0 2 0.894531 2 2 v 4 c 0 1.105469 -0.894531 2 -2 2 h -4 c -1.105469 0 -2 -0.894531 -2 -2 v -4 c 0 -1.105469 0.894531 -2 2 -2 z m 0 0" fill="#241f31"/>
    <path d="m 76 70 h 4 c 1.105469 0 2 0.894531 2 2 v 4 c 0 1.105469 -0.894531 2 -2 2 h -4 c -1.105469 0 -2 -0.894531 -2 -2 v -4 c 0 -1.105469 0.894531 -2 2 -2 z m 0 0" fill="url(#l)"/>
    <path d="m 86 72 h 4 c 1.105469 0 2 0.894531 2 2 v 4 c 0 1.105469 -0.894531 2 -2 2 h -4 c -1.105469 0 -2 -0.894531 -2 -2 v -4 c 0 -1.105469 0.894531 -2 2 -2 z m 0 0" fill="#241f31"/>
    <path d="m 86 70 h 4 c 1.105469 0 2 0.894531 2 2 v 4 c 0 1.105469 -0.894531 2 -2 2 h -4 c -1.105469 0 -2 -0.894531 -2 -2 v -4 c 0 -1.105469 0.894531 -2 2 -2 z m 0 0" fill="url(#m)"/>
    <path d="m 96 72 h 4 c 1.105469 0 2 0.894531 2 2 v 4 c 0 1.105469 -0.894531 2 -2 2 h -4 c -1.105469 0 -2 -0.894531 -2 -2 v -4 c 0 -1.105469 0.894531 -2 2 -2 z m 0 0" fill="#241f31"/>
    <path d="m 96 70 h 4 c 1.105469 0 2 0.894531 2 2 v 4 c 0 1.105469 -0.894531 2 -2 2 h -4 c -1.105469 0 -2 -0.894531 -2 -2 v -4 c 0 -1.105469 0.894531 -2 2 -2 z m 0 0" fill="url(#n)"/>
    <path d="m 38 84 h 4 c 1.105469 0 2 0.894531 2 2 v 4 c 0 1.105469 -0.894531 2 -2 2 h -4 c -1.105469 0 -2 -0.894531 -2 -2 v -4 c 0 -1.105469 0.894531 -2 2 -2 z m 0 0" fill="#241f31"/>
    <path d="m 38 82 h 4 c 1.105469 0 2 0.894531 2 2 v 4 c 0 1.105469 -0.894531 2 -2 2 h -4 c -1.105469 0 -2 -0.894531 -2 -2 v -4 c 0 -1.105469 0.894531 -2 2 -2 z m 0 0" fill="url(#o)"/>
    <path d="m 48 84 h 4 c 1.105469 0 2 0.894531 2 2 v 4 c 0 1.105469 -0.894531 2 -2 2 h -4 c -1.105469 0 -2 -0.894531 -2 -2 v -4 c 0 -1.105469 0.894531 -2 2 -2 z m 0 0" fill="#241f31"/>
    <path d="m 48 82 h 4 c 1.105469 0 2 0.894531 2 2 v 4 c 0 1.105469 -0.894531 2 -2 2 h -4 c -1.105469 0 -2 -0.894531 -2 -2 v -4 c 0 -1.105469 0.894531 -2 2 -2 z m 0 0" fill="url(#p)"/>
    <path d="m 58 84 h 4 c 1.105469 0 2 0.894531 2 2 v 4 c 0 1.105469 -0.894531 2 -2 2 h -4 c -1.105469 0 -2 -0.894531 -2 -2 v -4 c 0 -1.105469 0.894531 -2 2 -2 z m 0 0" fill="#241f31"/>
    <path d="m 58 82 h 4 c 1.105469 0 2 0.894531 2 2 v 4 c 0 1.105469 -0.894531 2 -2 2 h -4 c -1.105469 0 -2 -0.894531 -2 -2 v -4 c 0 -1.105469 0.894531 -2 2 -2 z m 0 0" fill="url(#q)"/>
    <path d="m 68 84 h 4 c 1.105469 0 2 0.894531 2 2 v 4 c 0 1.105469 -0.894531 2 -2 2 h -4 c -1.105469 0 -2 -0.894531 -2 -2 v -4 c 0 -1.105469 0.894531 -2 2 -2 z m 0 0" fill="#241f31"/>
    <path d="m 68 82 h 4 c 1.105469 0 2 0.894531 2 2 v 4 c 0 1.105469 -0.894531 2 -2 2 h -4 c -1.105469 0 -2 -0.894531 -2 -2 v -4 c 0 -1.105469 0.894531 -2 2 -2 z m 0 0" fill="url(#r)"/>
    <path d="m 78 84 h 4 c 1.105469 0 2 0.894531 2 2 v 4 c 0 1.105469 -0.894531 2 -2 2 h -4 c -1.105469 0 -2 -0.894531 -2 -2 v -4 c 0 -1.105469 0.894531 -2 2 -2 z m 0 0" fill="#241f31"/>
    <path d="m 78 82 h 4 c 1.105469 0 2 0.894531 2 2 v 4 c 0 1.105469 -0.894531 2 -2 2 h -4 c -1.105469 0 -2 -0.894531 -2 -2 v -4 c 0 -1.105469 0.894531 -2 2 -2 z m 0 0" fill="url(#s)"/>
    <path d="m 88 84 h 14 c 1.105469 0 2 0.894531 2 2 v 4 c 0 1.105469 -0.894531 2 -2 2 h -14 c -1.105469 0 -2 -0.894531 -2 -2 v -4 c 0 -1.105469 0.894531 -2 2 -2 z m 0 0" fill="#241f31"/>
    <path d="m 88 82 h 14 c 1.105469 0 2 0.894531 2 2 v 4 c 0 1.105469 -0.894531 2 -2 2 h -14 c -1.105469 0 -2 -0.894531 -2 -2 v -4 c 0 -1.105469 0.894531 -2 2 -2 z m 0 0" fill="url(#t)"/>
    <path d="m 26 96 h 4 c 1.105469 0 2 0.894531 2 2 v 4 c 0 1.105469 -0.894531 2 -2 2 h -4 c -1.105469 0 -2 -0.894531 -2 -2 v -4 c 0 -1.105469 0.894531 -2 2 -2 z m 0 0" fill="#241f31"/>
    <path d="m 26 94 h 4 c 1.105469 0 2 0.894531 2 2 v 4 c 0 1.105469 -0.894531 2 -2 2 h -4 c -1.105469 0 -2 -0.894531 -2 -2 v -4 c 0 -1.105469 0.894531 -2 2 -2 z m 0 0" fill="url(#u)"/>
    <path d="m 36 96 h 4 c 1.105469 0 2 0.894531 2 2 v 4 c 0 1.105469 -0.894531 2 -2 2 h -4 c -1.105469 0 -2 -0.894531 -2 -2 v -4 c 0 -1.105469 0.894531 -2 2 -2 z m 0 0" fill="#241f31"/>
    <path d="m 36 94 h 4 c 1.105469 0 2 0.894531 2 2 v 4 c 0 1.105469 -0.894531 2 -2 2 h -4 c -1.105469 0 -2 -0.894531 -2 -2 v -4 c 0 -1.105469 0.894531 -2 2 -2 z m 0 0" fill="url(#v)"/>
    <path d="m 46 96 h 34 c 1.105469 0 2 0.894531 2 2 v 4 c 0 1.105469 -0.894531 2 -2 2 h -34 c -1.105469 0 -2 -0.894531 -2 -2 v -4 c 0 -1.105469 0.894531 -2 2 -2 z m 0 0" fill="#241f31"/>
    <path d="m 46 94 h 34 c 1.105469 0 2 0.894531 2 2 v 4 c 0 1.105469 -0.894531 2 -2 2 h -34 c -1.105469 0 -2 -0.894531 -2 -2 v -4 c 0 -1.105469 0.894531 -2 2 -2 z m 0 0" fill="url(#w)"/>
    <path d="m 86 96 h 4 c 1.105469 0 2 0.894531 2 2 v 4 c 0 1.105469 -0.894531 2 -2 2 h -4 c -1.105469 0 -2 -0.894531 -2 -2 v -4 c 0 -1.105469 0.894531 -2 2 -2 z m 0 0" fill="#241f31"/>
    <path d="m 86 94 h 4 c 1.105469 0 2 0.894531 2 2 v 4 c 0 1.105469 -0.894531 2 -2 2 h -4 c -1.105469 0 -2 -0.894531 -2 -2 v -4 c 0 -1.105469 0.894531 -2 2 -2 z m 0 0" fill="url(#x)"/>
    <path d="m 96 96 h 4 c 1.105469 0 2 0.894531 2 2 v 4 c 0 1.105469 -0.894531 2 -2 2 h -4 c -1.105469 0 -2 -0.894531 -2 -2 v -4 c 0 -1.105469 0.894531 -2 2 -2 z m 0 0" fill="#241f31"/>
    <path d="m 96 94 h 4 c 1.105469 0 2 0.894531 2 2 v 4 c 0 1.105469 -0.894531 2 -2 2 h -4 c -1.105469 0 -2 -0.894531 -2 -2 v -4 c 0 -1.105469 0.894531 -2 2 -2 z m 0 0" fill="url(#y)"/>
    <path d="m 28 84 h 4 c 1.105469 0 2 0.894531 2 2 v 4 c 0 1.105469 -0.894531 2 -2 2 h -4 c -1.105469 0 -2 -0.894531 -2 -2 v -4 c 0 -1.105469 0.894531 -2 2 -2 z m 0 0" fill="#241f31"/>
    <path d="m 28 82 h 4 c 1.105469 0 2 0.894531 2 2 v 4 c 0 1.105469 -0.894531 2 -2 2 h -4 c -1.105469 0 -2 -0.894531 -2 -2 v -4 c 0 -1.105469 0.894531 -2 2 -2 z m 0 0" fill="url(#z)"/>
    <path d="m 98 109 h 24 c 2.210938 0 4 1.789062 4 4 v 11 c 0 2.210938 -1.789062 4 -4 4 h -24 c -2.210938 0 -4 -1.789062 -4 -4 v -11 c 0 -2.210938 1.789062 -4 4 -4 z m 0 0" fill="#464153"/>
    <path d="m 96 88 h 28 c 2.210938 0 4 1.789062 4 4 v 32 c 0 2.210938 -1.789062 4 -4 4 h -28 c -2.210938 0 -4 -1.789062 -4 -4 v -32 c 0 -2.210938 1.789062 -4 4 -4 z m 0 0" fill="url(#A)"/>
    <path d="m 96 72 h 28 c 2.210938 0 4 1.789062 4 4 v 42 c 0 2.210938 -1.789062 4 -4 4 h -28 c -2.210938 0 -4 -1.789062 -4 -4 v -42 c 0 -2.210938 1.789062 -4 4 -4 z m 0 0" fill="#f6f5f4"/>
    <path d="m 119 74.5 c 0 0.550781 -0.449219 1 -1 1 s -1 -0.449219 -1 -1 s 0.449219 -1 1 -1 s 1 0.449219 1 1 z m 0 0"/>
    <path d="m 107.5 74 h 5 c 0.277344 0 0.5 0.222656 0.5 0.5 s -0.222656 0.5 -0.5 0.5 h -5 c -0.277344 0 -0.5 -0.222656 -0.5 -0.5 s 0.222656 -0.5 0.5 -0.5 z m 0 0"/>
    <path d="m 108.75 123.5 h 2.5 c 0.691406 0 1.25 0.558594 1.25 1.25 s -0.558594 1.25 -1.25 1.25 h -2.5 c -0.691406 0 -1.25 -0.558594 -1.25 -1.25 s 0.558594 -1.25 1.25 -1.25 z m 0 0" fill="#241f31"/>
    <path d="m 107.523438 124.5 c -0.015626 0.082031 -0.023438 0.164062 -0.023438 0.25 c 0 0.691406 0.558594 1.25 1.25 1.25 h 2.5 c 0.691406 0 1.25 -0.558594 1.25 -1.25 c 0 -0.085938 -0.007812 -0.167969 -0.023438 -0.25 c -0.117187 0.570312 -0.621093 1 -1.226562 1 h -2.5 c -0.605469 0 -1.109375 -0.429688 -1.226562 -1 z m 0 0" fill="#9a9996"/>
    <g fill="#241f31">
        <path d="m 101.25 124 c -0.414062 0 -0.75 0.335938 -0.75 0.75 s 0.335938 0.75 0.75 0.75 s 0.75 -0.335938 0.75 -0.75 s -0.335938 -0.75 -0.75 -0.75 z m 2 0 c -0.414062 0 -0.75 0.335938 -0.75 0.75 s 0.335938 0.75 0.75 0.75 s 0.75 -0.335938 0.75 -0.75 s -0.335938 -0.75 -0.75 -0.75 z m 2 0 c -0.414062 0 -0.75 0.335938 -0.75 0.75 s 0.335938 0.75 0.75 0.75 s 0.75 -0.335938 0.75 -0.75 s -0.335938 -0.75 -0.75 -0.75 z m 0 0"/>
        <path d="m 115.5 124.75 c 0 0.414062 -0.335938 0.75 -0.75 0.75 s -0.75 -0.335938 -0.75 -0.75 s 0.335938 -0.75 0.75 -0.75 s 0.75 0.335938 0.75 0.75 z m 0 0"/>
        <path d="m 117.5 124.75 c 0 0.414062 -0.335938 0.75 -0.75 0.75 s -0.75 -0.335938 -0.75 -0.75 s 0.335938 -0.75 0.75 -0.75 s 0.75 0.335938 0.75 0.75 z m 0 0"/>
        <path d="m 119.5 124.75 c 0 0.414062 -0.335938 0.75 -0.75 0.75 s -0.75 -0.335938 -0.75 -0.75 s 0.335938 -0.75 0.75 -0.75 s 0.75 0.335938 0.75 0.75 z m 0 0"/>
    </g>
    <path d="m 101.957031 124.5 c -0.105469 0.300781 -0.390625 0.5 -0.707031 0.5 s -0.601562 -0.199219 -0.707031 -0.5 c -0.027344 0.082031 -0.042969 0.164062 -0.042969 0.25 c 0 0.414062 0.335938 0.75 0.75 0.75 s 0.75 -0.335938 0.75 -0.75 c 0 -0.085938 -0.015625 -0.171875 -0.042969 -0.25 z m 2 0 c -0.105469 0.300781 -0.390625 0.5 -0.707031 0.5 s -0.601562 -0.199219 -0.707031 -0.5 c -0.027344 0.082031 -0.042969 0.164062 -0.042969 0.25 c 0 0.414062 0.335938 0.75 0.75 0.75 s 0.75 -0.335938 0.75 -0.75 c 0 -0.085938 -0.015625 -0.171875 -0.042969 -0.25 z m 2 0 c -0.105469 0.300781 -0.390625 0.5 -0.707031 0.5 s -0.601562 -0.199219 -0.707031 -0.5 c -0.027344 0.082031 -0.042969 0.164062 -0.042969 0.25 c 0 0.414062 0.335938 0.75 0.75 0.75 s 0.75 -0.335938 0.75 -0.75 c 0 -0.085938 -0.015625 -0.171875 -0.042969 -0.25 z m 0 0" fill="#9a9996"/>
    <path d="m 115.457031 124.5 c -0.105469 0.300781 -0.390625 0.5 -0.707031 0.5 s -0.601562 -0.199219 -0.707031 -0.5 c -0.027344 0.082031 -0.042969 0.164062 -0.042969 0.25 c 0 0.414062 0.335938 0.75 0.75 0.75 s 0.75 -0.335938 0.75 -0.75 c 0 -0.085938 -0.015625 -0.171875 -0.042969 -0.25 z m 2 0 c -0.105469 0.300781 -0.390625 0.5 -0.707031 0.5 s -0.601562 -0.199219 -0.707031 -0.5 c -0.027344 0.082031 -0.042969 0.164062 -0.042969 0.25 c 0 0.414062 0.335938 0.75 0.75 0.75 s 0.75 -0.335938 0.75 -0.75 c 0 -0.085938 -0.015625 -0.171875 -0.042969 -0.25 z m 2 0 c -0.105469 0.300781 -0.390625 0.5 -0.707031 0.5 s -0.601562 -0.199219 -0.707031 -0.5 c -0.027344 0.082031 -0.042969 0.164062 -0.042969 0.25 c 0 0.414062 0.335938 0.75 0.75 0.75 s 0.75 -0.335938 0.75 -0.75 c 0 -0.085938 -0.015625 -0.171875 -0.042969 -0.25 z m 0 0" fill="#9a9996"/>
    <path d="m 96 77 h 28 c 1.105469 0 2 0.894531 2 2 v 39 c 0 1.105469 -0.894531 2 -2 2 h -28 c -1.105469 0 -2 -0.894531 -2 -2 v -39 c 0 -1.105469 0.894531 -2 2 -2 z m 0 0" fill="url(#B)"/>
</svg>
