<?xml version="1.0" encoding="UTF-8"?>
<svg height="16px" viewBox="0 0 16 16" width="16px" xmlns="http://www.w3.org/2000/svg">
    <path d="m 5 0 c -1.644531 0 -3 1.355469 -3 3 v 10 c 0 1.644531 1.355469 3 3 3 h 6 c 1.644531 0 3 -1.355469 3 -3 v -10 c 0 -1.644531 -1.355469 -3 -3 -3 z m 0 2 h 6 c 0.570312 0 1 0.429688 1 1 v 10 c 0 0.554688 -0.445312 1 -1 1 h -6 c -0.554688 0 -1 -0.445312 -1 -1 v -10 c 0 -0.570312 0.429688 -1 1 -1 z m 0 0" fill="#2e3436"/>
    <path d="m 5.5 12 c -0.277344 0 -0.5 0.222656 -0.5 0.5 s 0.222656 0.5 0.5 0.5 h 5 c 0.277344 0 0.5 -0.222656 0.5 -0.5 s -0.222656 -0.5 -0.5 -0.5 z m 0 0" fill="#222222" fill-opacity="0.34902"/>
</svg>
