<?xml version="1.0" encoding="UTF-8" standalone="no"?>
<svg
   xmlns:osb="http://www.openswatchbook.org/uri/2009/osb"
   xmlns:dc="http://purl.org/dc/elements/1.1/"
   xmlns:cc="http://creativecommons.org/ns#"
   xmlns:rdf="http://www.w3.org/1999/02/22-rdf-syntax-ns#"
   xmlns:svg="http://www.w3.org/2000/svg"
   xmlns="http://www.w3.org/2000/svg"
   width="16"
   viewBox="0 0 16 16"
   version="1.1"
   id="svg7384"
   height="16">
  <metadata
     id="metadata90">
    <rdf:RDF>
      <cc:Work
         rdf:about="">
        <dc:format>image/svg+xml</dc:format>
        <dc:type
           rdf:resource="http://purl.org/dc/dcmitype/StillImage" />
        <dc:title>Gnome Symbolic Icon Theme</dc:title>
      </cc:Work>
    </rdf:RDF>
  </metadata>
  <title
     id="title9167">Gnome Symbolic Icon Theme</title>
  <defs
     id="defs7386">
    <linearGradient
       osb:paint="solid"
       id="linearGradient7212">
      <stop
         style="stop-color:#000000;stop-opacity:1;"
         offset="0"
         id="stop7214" />
    </linearGradient>
  </defs>
  <g
     transform="translate(-200.0002,-318)"
     style="display:inline"
     id="layer1" />
  <g
     transform="translate(-441.0004,49)"
     style="display:inline"
     id="layer9" />
  <g
     transform="translate(-441.0004,49)"
     style="display:inline"
     id="g7628" />
  <g
     transform="translate(-200.0002,-518)"
     id="layer13" />
  <g
     transform="translate(-200.0002,-318)"
     style="display:inline"
     id="layer11" />
  <g
     transform="translate(-200.0002,-518)"
     id="layer14" />
  <g
     transform="translate(-200.0002,-318)"
     style="display:inline"
     id="g6387">
    <path
       d="m 211.80273,318 c 1.2016,0 2.19727,1.00125 2.19727,2.20117 h -2 C 212,320.07027 211.92653,320 211.80273,320 H 211 v 0.25 c 0,0.4155 -0.3345,0.75 -0.75,0.75 h -4.5 c -0.4155,0 -0.75,-0.3345 -0.75,-0.75 V 320 h -0.80469 C 204.07152,320 204,320.0703 204,320.20117 v 9.60938 c 0,0.1309 0.0715,0.20117 0.19531,0.20117 L 212,330 v 2 l 1.98363,0.0643 c -0.13369,1.07859 -1.06915,1.9357 -2.1809,1.9357 h -7.60742 C 202.99372,334 202,332.99875 202,331.79883 V 320.20117 C 202,319.00125 202.99372,318 204.19531,318 Z M 208,330.90234 c -0.55228,0 -1,0.38132 -1,0.9336 0,0.55228 0.44772,1 1,1 0.55228,0 1,-0.44772 1,-1 0,-0.55228 -0.44772,-0.9336 -1,-0.9336 z"
       id="path9423"
       style="color:#bebebe;font-style:normal;font-variant:normal;font-weight:normal;font-stretch:normal;font-size:medium;line-height:normal;font-family:sans-serif;font-variant-ligatures:normal;font-variant-position:normal;font-variant-caps:normal;font-variant-numeric:normal;font-variant-alternates:normal;font-feature-settings:normal;text-indent:0;text-align:start;text-decoration:none;text-decoration-line:none;text-decoration-style:solid;text-decoration-color:#000000;letter-spacing:normal;word-spacing:normal;text-transform:none;writing-mode:lr-tb;direction:ltr;text-orientation:mixed;dominant-baseline:auto;baseline-shift:baseline;text-anchor:start;white-space:normal;shape-padding:0;clip-rule:nonzero;display:inline;overflow:visible;visibility:visible;opacity:1;isolation:auto;mix-blend-mode:normal;color-interpolation:sRGB;color-interpolation-filters:linearRGB;solid-color:#000000;solid-opacity:1;vector-effect:none;fill:#2e3436;fill-opacity:1;fill-rule:nonzero;stroke:none;stroke-width:1.99999988;stroke-linecap:butt;stroke-linejoin:miter;stroke-miterlimit:4;stroke-dasharray:none;stroke-dashoffset:0;stroke-opacity:1;marker:none;color-rendering:auto;image-rendering:auto;shape-rendering:auto;text-rendering:auto;enable-background:accumulate" />
    <path
       d="m 216,326.0625 c 0,-2.16664 -0.73878,-4.01982 -2,-5 h -1 v 2 c 0.60652,0.78878 1,1.75887 1,3 0,1.24113 -0.39348,2.21938 -1,3 v 2 h 1 c 1.2229,-0.99478 2,-2.8734 2,-5 z"
       id="rect11703-1-6"
       style="color:#000000;display:inline;overflow:visible;visibility:visible;fill:#2e3436;fill-opacity:1;fill-rule:nonzero;stroke:none;stroke-width:1;stroke-linecap:round;stroke-linejoin:round;stroke-miterlimit:4;stroke-dasharray:none;stroke-dashoffset:0;stroke-opacity:0;marker:none;enable-background:accumulate" />
    <path
       clip-path="none"
       d="m 213,326.0625 c 0,-1.25733 -0.31165,-2.21571 -1,-3 h -1 v 6 h 1 c 0.67206,-0.8369 1,-1.74267 1,-3 z"
       id="path6297-6-8"
       mask="none"
       style="color:#000000;font-style:normal;font-variant:normal;font-weight:normal;font-stretch:normal;font-size:medium;line-height:normal;font-family:Sans;-inkscape-font-specification:Sans;text-indent:0;text-align:start;text-decoration:none;text-decoration-line:none;letter-spacing:normal;word-spacing:normal;text-transform:none;writing-mode:lr-tb;direction:ltr;baseline-shift:baseline;text-anchor:start;display:inline;overflow:visible;visibility:visible;fill:#2e3436;fill-opacity:1;stroke:none;stroke-width:2.32782054;marker:none;enable-background:accumulate" />
  </g>
  <g
     transform="translate(-200.0002,-518)"
     id="layer18" />
  <g
     transform="translate(-200.0002,-518)"
     id="layer17" />
  <g
     transform="translate(-200.0002,-518)"
     id="layer16" />
  <g
     transform="translate(-200.0002,-318)"
     style="display:inline"
     id="layer10" />
  <g
     transform="translate(-200.0002,-518)"
     id="layer15" />
  <g
     transform="translate(-200.0002,-318)"
     id="layer12" />
</svg>
