<?xml version="1.0" encoding="UTF-8"?>
<svg xmlns="http://www.w3.org/2000/svg" height="16px" viewBox="0 0 16 16" width="16px"><g fill="#222222"><path d="m 4.195312 0 c -1.199218 0 -2.195312 1 -2.195312 2.199219 v 2.800781 h 2 v -2.800781 c 0 -0.128907 0.074219 -0.199219 0.195312 -0.199219 h 7.609376 c 0.125 0 0.195312 0.070312 0.195312 0.199219 v 9.613281 c 0 0.128906 -0.070312 0.199219 -0.195312 0.199219 l -9.804688 -0.011719 v 1.800781 c 0 1.199219 0.996094 2.199219 2.195312 2.199219 h 7.609376 c 1.203124 0 2.195312 -1 2.195312 -2.199219 v -11.601562 c 0 -1.199219 -0.992188 -2.199219 -2.195312 -2.199219 z m 3.804688 12.902344 c 0.550781 0 1 0.382812 1 0.933594 c 0 0.550781 -0.449219 1 -1 1 s -1 -0.449219 -1 -1 c 0 -0.550782 0.449219 -0.933594 1 -0.933594 z m 0 0"/><path d="m 1 6 h 1.375 l 1.125 1.09375 l 1.09375 -1.09375 h 1.40625 v 1.46875 l -1.09375 1.0625 l 1.09375 1.0625 v 1.40625 h -1.4375 l -1.0625 -1.0625 l -1.0625 1.0625 h -1.4375 v -1.40625 l 1.0625 -1.0625 l -1.0625 -1.0625 z m 0 0"/></g></svg>
