<?xml version="1.0" encoding="UTF-8" standalone="no"?>
<svg
   xmlns:osb="http://openswatchbook.org/uri/2009/osb"
   xmlns:dc="http://purl.org/dc/elements/1.1"
   xmlns:cc="http://creativecommons.org/ns#"
   xmlns:rdf="http://w3.org/1999/02/22-rdf-syntax-ns#"
   xmlns:svg="http://w3.org/2000/svg"
   xmlns="http://w3.org/2000/svg"
   width="16.156401"
   viewBox="0 0 16.156401 16"
   version="1.1"
   id="svg7384"
   height="16">
  <metadata
     id="metadata90">
    <rdf:RDF>
      <cc:Work
         rdf:about="">
        <dc:format>image/svg+xml</dc:format>
        <dc:type
           rdf:resource="http://purl.org/dc/dcmitype/StillImage" />
        <dc:title>Gnome Symbolic Icon Theme</dc:title>
      </cc:Work>
    </rdf:RDF>
  </metadata>
  <title
     id="title9167">Gnome Symbolic Icon Theme</title>
  <defs
     id="defs7386">
    <linearGradient
       osb:paint="solid"
       id="linearGradient7212">
      <stop
         style="stop-color:#000000;stop-opacity:1;"
         offset="0"
         id="stop7214" />
    </linearGradient>
  </defs>
  <g
     transform="translate(-219.8438,-318)"
     style="display:inline"
     id="layer1" />
  <g
     transform="translate(-460.844,49)"
     style="display:inline"
     id="layer9" />
  <g
     transform="translate(-460.844,49)"
     style="display:inline"
     id="g7628" />
  <g
     transform="translate(-219.8438,-518)"
     id="layer13" />
  <g
     transform="translate(-219.8438,-318)"
     style="display:inline"
     id="layer11" />
  <g
     transform="translate(-219.8438,-518)"
     id="layer14" />
  <g
     transform="translate(-219.8438,-318)"
     style="display:inline"
     id="g6387">
    <path
       d="M 224.19727,318 C 222.99567,318 222,319.00125 222,320.20117 v 1.80664 h 2 v -1.80664 C 224,320.07027 224.07347,320 224.19727,320 H 225 v 0.25 c 0,0.4155 0.3345,0.75 0.75,0.75 h 4.5 c 0.4155,0 0.75,-0.3345 0.75,-0.75 V 320 h 0.80469 c 0.12379,0 0.19531,0.0703 0.19531,0.20117 v 9.60938 c 0,0.1309 -0.0715,0.20117 -0.19531,0.20117 L 222,330 v 1.79883 c 0,1.19992 0.99567,2.20117 2.19727,2.20117 h 7.60742 C 233.00628,334 234,332.99875 234,331.79883 V 320.20117 C 234,319.00125 233.00628,318 231.80469,318 Z M 228,330.90234 c 0.55228,0 1,0.38132 1,0.9336 0,0.55228 -0.44772,1 -1,1 -0.55228,0 -1,-0.44772 -1,-1 0,-0.55228 0.44772,-0.9336 1,-0.9336 z"
       id="path9509"
       style="color:#bebebe;font-style:normal;font-variant:normal;font-weight:normal;font-stretch:normal;font-size:medium;line-height:normal;font-family:sans-serif;font-variant-ligatures:normal;font-variant-position:normal;font-variant-caps:normal;font-variant-numeric:normal;font-variant-alternates:normal;font-feature-settings:normal;text-indent:0;text-align:start;text-decoration:none;text-decoration-line:none;text-decoration-style:solid;text-decoration-color:#000000;letter-spacing:normal;word-spacing:normal;text-transform:none;writing-mode:lr-tb;direction:ltr;text-orientation:mixed;dominant-baseline:auto;baseline-shift:baseline;text-anchor:start;white-space:normal;shape-padding:0;clip-rule:nonzero;display:inline;overflow:visible;visibility:visible;opacity:1;isolation:auto;mix-blend-mode:normal;color-interpolation:sRGB;color-interpolation-filters:linearRGB;solid-color:#000000;solid-opacity:1;vector-effect:none;fill:#2e3436;fill-opacity:1;fill-rule:nonzero;stroke:none;stroke-width:1.99999988;stroke-linecap:butt;stroke-linejoin:miter;stroke-miterlimit:4;stroke-dasharray:none;stroke-dashoffset:0;stroke-opacity:1;marker:none;color-rendering:auto;image-rendering:auto;shape-rendering:auto;text-rendering:auto;enable-background:accumulate" />
    <path
       d="m 222.62505,322.43755 c -0.23014,0.0471 -0.44391,0.13096 -0.65625,0.21875 -0.0167,0.62433 0.0869,1.44177 -0.15625,1.65625 -0.23897,0.21077 -1.03836,0.0343 -1.65625,-0.0313 -0.13139,0.23649 -0.23526,0.48523 -0.3125,0.75 0.47809,0.39586 1.14051,0.83901 1.15625,1.15625 0.0159,0.32119 -0.62642,0.80489 -1.0625,1.25 0.10339,0.25783 0.25014,0.49354 0.40625,0.71875 0.60832,-0.12641 1.36639,-0.37354 1.625,-0.1875 0.26331,0.18942 0.26521,1.00535 0.34375,1.625 0.24955,0.075 0.51251,0.1045 0.78125,0.125 0.28135,-0.55462 0.56741,-1.3198 0.875,-1.40625 0.31575,-0.0887 0.96355,0.45813 1.5,0.78125 0.21871,-0.1516 0.41293,-0.33706 0.59375,-0.53125 -0.25384,-0.57232 -0.72108,-1.29192 -0.59375,-1.59375 0.12745,-0.30211 0.9754,-0.46963 1.5625,-0.6875 0.004,-0.0735 0.0312,-0.14414 0.0312,-0.21875 0,-0.19137 -0.0344,-0.37899 -0.0625,-0.5625 -0.6061,-0.16082 -1.46721,-0.2413 -1.625,-0.53125 -0.15674,-0.28801 0.24179,-1.0614 0.4375,-1.65625 -0.20116,-0.17858 -0.41941,-0.33716 -0.65625,-0.46875 -0.50089,0.37513 -1.08433,0.99436 -1.40625,0.9375 -0.31689,-0.056 -0.66289,-0.81955 -1,-1.34375 -0.0402,0.007 -0.0853,-0.008 -0.125,0 z m 0.625,1.875 c 0.93198,0 1.6875,0.75552 1.6875,1.6875 0,0.93198 -0.75552,1.6875 -1.6875,1.6875 -0.93198,0 -1.6875,-0.75552 -1.6875,-1.6875 0,-0.93198 0.75552,-1.6875 1.6875,-1.6875 z"
       id="path42972"
       style="color:#000000;display:inline;overflow:visible;visibility:visible;fill:#2e3436;fill-opacity:1;fill-rule:nonzero;stroke:none;stroke-width:1;marker:none;enable-background:accumulate" />
  </g>
  <g
     transform="translate(-219.8438,-518)"
     id="layer18" />
  <g
     transform="translate(-219.8438,-518)"
     id="layer17" />
  <g
     transform="translate(-219.8438,-518)"
     id="layer16" />
  <g
     transform="translate(-219.8438,-318)"
     style="display:inline"
     id="layer10" />
  <g
     transform="translate(-219.8438,-518)"
     id="layer15" />
  <g
     transform="translate(-219.8438,-318)"
     id="layer12" />
</svg>
