<?xml version="1.0" encoding="UTF-8" standalone="no"?>
<svg
   xmlns:osb="http://openswatchbook.org/uri/2009/osb"
   xmlns:dc="http://purl.org/dc/elements/1.1"
   xmlns:cc="http://creativecommons.org/ns#"
   xmlns:rdf="http://w3.org/1999/02/22-rdf-syntax-ns#"
   xmlns:svg="http://w3.org/2000/svg"
   xmlns="http://w3.org/2000/svg"
   width="16"
   viewBox="0 0 16 16"
   version="1.1"
   id="svg7384"
   height="16">
  <metadata
     id="metadata90">
    <rdf:RDF>
      <cc:Work
         rdf:about="">
        <dc:format>image/svg+xml</dc:format>
        <dc:type
           rdf:resource="http://purl.org/dc/dcmitype/StillImage" />
        <dc:title>Gnome Symbolic Icon Theme</dc:title>
      </cc:Work>
    </rdf:RDF>
  </metadata>
  <title
     id="title9167">Gnome Symbolic Icon Theme</title>
  <defs
     id="defs7386">
    <linearGradient
       osb:paint="solid"
       id="linearGradient7212">
      <stop
         style="stop-color:#000000;stop-opacity:1;"
         offset="0"
         id="stop7214" />
    </linearGradient>
  </defs>
  <g
     transform="translate(-180.0002,-318)"
     style="display:inline"
     id="layer1" />
  <g
     transform="translate(-421.0004,49)"
     style="display:inline"
     id="layer9" />
  <g
     transform="translate(-421.0004,49)"
     style="display:inline"
     id="g7628" />
  <g
     transform="translate(-180.0002,-518)"
     id="layer13" />
  <g
     transform="translate(-180.0002,-318)"
     style="display:inline"
     id="layer11" />
  <g
     transform="translate(-180.0002,-518)"
     id="layer14" />
  <g
     transform="translate(-180.0002,-318)"
     style="display:inline"
     id="g6387">
    <path
       d="M 184.19727,318 C 182.99567,318 182,319.00125 182,320.20117 v 1.80664 h 2 v -1.80664 C 184,320.07027 184.07347,320 184.19727,320 H 185 v 0.25 c 0,0.4155 0.3345,0.75 0.75,0.75 h 4.5 c 0.4155,0 0.75,-0.3345 0.75,-0.75 V 320 h 0.80469 c 0.12379,0 0.19531,0.0703 0.19531,0.20117 v 9.60938 c 0,0.1309 -0.0715,0.20117 -0.19531,0.20117 L 182,330 v 1.79883 c 0,1.19992 0.99567,2.20117 2.19727,2.20117 h 7.60742 C 193.00628,334 194,332.99875 194,331.79883 V 320.20117 C 194,319.00125 193.00628,318 191.80469,318 Z M 188,330.90234 c 0.55228,0 1,0.38132 1,0.9336 0,0.55228 -0.44772,1 -1,1 -0.55228,0 -1,-0.44772 -1,-1 0,-0.55228 0.44772,-0.9336 1,-0.9336 z"
       id="path9376"
       style="color:#bebebe;font-style:normal;font-variant:normal;font-weight:normal;font-stretch:normal;font-size:medium;line-height:normal;font-family:sans-serif;font-variant-ligatures:normal;font-variant-position:normal;font-variant-caps:normal;font-variant-numeric:normal;font-variant-alternates:normal;font-feature-settings:normal;text-indent:0;text-align:start;text-decoration:none;text-decoration-line:none;text-decoration-style:solid;text-decoration-color:#000000;letter-spacing:normal;word-spacing:normal;text-transform:none;writing-mode:lr-tb;direction:ltr;text-orientation:mixed;dominant-baseline:auto;baseline-shift:baseline;text-anchor:start;white-space:normal;shape-padding:0;clip-rule:nonzero;display:inline;overflow:visible;visibility:visible;opacity:1;isolation:auto;mix-blend-mode:normal;color-interpolation:sRGB;color-interpolation-filters:linearRGB;solid-color:#000000;solid-opacity:1;vector-effect:none;fill:#2e3436;fill-opacity:1;fill-rule:nonzero;stroke:none;stroke-width:1.99999988;stroke-linecap:butt;stroke-linejoin:miter;stroke-miterlimit:4;stroke-dasharray:none;stroke-dashoffset:0;stroke-opacity:1;marker:none;color-rendering:auto;image-rendering:auto;shape-rendering:auto;text-rendering:auto;enable-background:accumulate" />
    <path
       d="m 184,323 c -1.09865,0 -2,0.90135 -2,2 v 1 h -0.45312 C 181.23399,326 181,326.17178 181,326.5 v 2.5 h 6 v -2.5 c 0,-0.25781 -0.20999,-0.5 -0.5,-0.5 H 186 v -1 c 0,-1.09865 -0.90135,-2 -2,-2 z m 0,1 c 0.55821,0 1,0.44179 1,1 v 1 h -2 v -1 c 0,-0.55821 0.44179,-1 1,-1 z"
       id="rect9382"
       style="display:inline;opacity:1;vector-effect:none;fill:#2e3436;fill-opacity:1;fill-rule:nonzero;stroke:none;stroke-width:21.90890312;stroke-linecap:butt;stroke-linejoin:miter;stroke-miterlimit:4;stroke-dasharray:none;stroke-dashoffset:0;stroke-opacity:1;marker:none;marker-start:none;marker-mid:none;marker-end:none;paint-order:normal" />
  </g>
  <g
     transform="translate(-180.0002,-518)"
     id="layer18" />
  <g
     transform="translate(-180.0002,-518)"
     id="layer17" />
  <g
     transform="translate(-180.0002,-518)"
     id="layer16" />
  <g
     transform="translate(-180.0002,-318)"
     style="display:inline"
     id="layer10" />
  <g
     transform="translate(-180.0002,-518)"
     id="layer15" />
  <g
     transform="translate(-180.0002,-318)"
     id="layer12" />
</svg>
