<?xml version="1.0" encoding="UTF-8"?>
<svg xmlns="http://www.w3.org/2000/svg" height="16px" viewBox="0 0 16 16" width="16px"><g fill="#222222"><path d="m 12 1 c 1.664062 0 3 1.339844 3 3 v 6 c 0 1.660156 -1.335938 3 -3 3 h -8 c -1.660156 0 -3 -1.339844 -3 -3 v -6 c 0 -1.660156 1.339844 -3 3 -3 z m 0 2 h -8 c -0.554688 0 -1 0.445312 -1 1 v 6 c 0 0.554688 0.445312 1 1 1 h 8 c 0.554688 0 1 -0.445312 1 -1 v -6 c 0 -0.554688 -0.445312 -1 -1 -1 z m 0 0"/><path d="m 8 14 c -5 0 -5 1 -5 1 c 0 1 1 1 1 1 h 8 c 1 0 1 -1 1 -1 s 0 -1 -5 -1 z m 0 0"/><path d="m 6 4 c -0.550781 0 -1 0.449219 -1 1 s 0.449219 1 1 1 s 1 -0.449219 1 -1 s -0.449219 -1 -1 -1 z m 4 0 c -0.550781 0 -1 0.449219 -1 1 s 0.449219 1 1 1 s 1 -0.449219 1 -1 s -0.449219 -1 -1 -1 z m -2 3 c -1.429688 0 -2.75 0.761719 -3.464844 2 c -0.136718 0.238281 -0.054687 0.546875 0.183594 0.683594 c 0.238281 0.136718 0.546875 0.054687 0.683594 -0.183594 c 0.535156 -0.929688 1.523437 -1.5 2.597656 -1.5 s 2.0625 0.570312 2.597656 1.5 c 0.136719 0.238281 0.445313 0.320312 0.683594 0.183594 c 0.238281 -0.136719 0.320312 -0.445313 0.183594 -0.683594 c -0.714844 -1.238281 -2.035156 -2 -3.464844 -2 z m 0 0"/></g></svg>
