<?xml version="1.0"?>
<svg xmlns="http://w3.org/2000/svg" width="140" height="140" viewBox="0 0 37.042 37.042"><g color="#000" fill="#bebebe"><path d="M31.75 5.292v14.717c0 1.364-.138 2.933-1.158 4.3-1.019 1.366-2.896 2.218-5.457 2.15H14.387l-2.729 2.645h12.154l7.938 7.938v-7.938h2.646a2.64 2.64 0 0 0 2.646-2.646V7.938a2.64 2.64 0 0 0-2.646-2.646z" style="marker:none" overflow="visible" fill-opacity=".365"/><path d="M2.646 0A2.64 2.64 0 0 0 0 2.646v18.52a2.64 2.64 0 0 0 2.646 2.646h2.646v7.938l7.937-7.938h13.23a2.64 2.64 0 0 0 2.645-2.645V2.646A2.64 2.64 0 0 0 26.458 0z" style="marker:none" overflow="visible"/></g></svg>

