<?xml version="1.0" encoding="UTF-8" standalone="no"?>
<svg
   xmlns:osb="http://openswatchbook.org/uri/2009/osb"
   xmlns:dc="http://purl.org/dc/elements/1.1"
   xmlns:cc="http://creativecommons.org/ns#"
   xmlns:rdf="http://w3.org/1999/02/22-rdf-syntax-ns#"
   xmlns:svg="http://w3.org/2000/svg"
   xmlns="http://w3.org/2000/svg"
   width="16"
   viewBox="0 0 16 16"
   version="1.1"
   id="svg7384"
   height="16">
  <metadata
     id="metadata90">
    <rdf:RDF>
      <cc:Work
         rdf:about="">
        <dc:format>image/svg+xml</dc:format>
        <dc:type
           rdf:resource="http://purl.org/dc/dcmitype/StillImage" />
        <dc:title>Gnome Symbolic Icon Theme</dc:title>
      </cc:Work>
    </rdf:RDF>
  </metadata>
  <title
     id="title9167">Gnome Symbolic Icon Theme</title>
  <defs
     id="defs7386">
    <linearGradient
       osb:paint="solid"
       id="linearGradient7212">
      <stop
         style="stop-color:#000000;stop-opacity:1;"
         offset="0"
         id="stop7214" />
    </linearGradient>
  </defs>
  <g
     transform="translate(-180.0004,-278)"
     style="display:inline"
     id="layer1" />
  <g
     transform="translate(-421.0006,89)"
     style="display:inline"
     id="layer9" />
  <g
     transform="translate(-421.0006,89)"
     style="display:inline"
     id="g7628" />
  <g
     transform="translate(-180.0004,-478)"
     id="layer13" />
  <g
     transform="translate(-180.0004,-278)"
     style="display:inline"
     id="layer11" />
  <g
     transform="translate(-180.0004,-478)"
     id="layer14" />
  <g
     transform="translate(-180.0004,-278)"
     style="display:inline"
     id="g6387">
    <path
       d="m 184,281 c -1.662,0 -3,1.338 -3,3 v 7 c 0,1.662 1.338,3 3,3 h 8 c 1.662,0 3,-1.338 3,-3 v -7 c 0,-1.662 -1.338,-3 -3,-3 z m 0.5,1 h 3.5 3.5 c 0,0 1.5,1 1.5,4 0,3 -1.5,4 -1.5,4 h -3.5 -3.5 c 0,0 -1.5,-1 -1.5,-4 0,-3 1.5,-4 1.5,-4 z m 6.5,10 h 1 v 1 h -1 z"
       id="rect7082"
       style="opacity:1;fill:#2e3436;fill-opacity:1;stroke:none;stroke-width:2;stroke-linecap:round;stroke-linejoin:round;stroke-miterlimit:4;stroke-dasharray:none;stroke-dashoffset:56;stroke-opacity:1" />
    <path
       id="path27232"
       d="m 186.0004,279 a 1,1 0 0 1 -1,1 1,1 0 0 1 -1,-1 1,1 0 0 1 1,-1 1,1 0 0 1 1,1 z"
       style="color:#000000;display:inline;overflow:visible;visibility:visible;fill:#2e3436;fill-opacity:1;stroke:none;stroke-width:1;marker:none;enable-background:new" />
    <path
       id="path27234"
       d="m 191.98871,279 a 1,1 0 0 1 -1,1 1,1 0 0 1 -1,-1 1,1 0 0 1 1,-1 1,1 0 0 1 1,1 z"
       style="color:#000000;display:inline;overflow:visible;visibility:visible;fill:#2e3436;fill-opacity:1;stroke:none;stroke-width:1;marker:none;enable-background:new" />
    <path
       id="path27236"
       d="m 185.35547,278.64844 -0.71094,0.70312 2.61914,2.6543 1.50781,-0.0234 2.58594,-2.63281 -0.71289,-0.69922 -2.29883,2.33984 -0.66992,0.01 z"
       style="color:#000000;font-style:normal;font-variant:normal;font-weight:normal;font-stretch:normal;font-size:medium;line-height:normal;font-family:sans-serif;font-variant-ligatures:normal;font-variant-position:normal;font-variant-caps:normal;font-variant-numeric:normal;font-variant-alternates:normal;font-feature-settings:normal;text-indent:0;text-align:start;text-decoration:none;text-decoration-line:none;text-decoration-style:solid;text-decoration-color:#000000;letter-spacing:normal;word-spacing:normal;text-transform:none;writing-mode:lr-tb;direction:ltr;text-orientation:mixed;dominant-baseline:auto;baseline-shift:baseline;text-anchor:start;white-space:normal;shape-padding:0;clip-rule:nonzero;display:inline;overflow:visible;visibility:visible;opacity:1;isolation:auto;mix-blend-mode:normal;color-interpolation:sRGB;color-interpolation-filters:linearRGB;solid-color:#000000;solid-opacity:1;vector-effect:none;fill:#2e3436;fill-opacity:1;fill-rule:nonzero;stroke:none;stroke-width:1;stroke-linecap:butt;stroke-linejoin:miter;stroke-miterlimit:4;stroke-dasharray:none;stroke-dashoffset:0;stroke-opacity:1;marker:none;color-rendering:auto;image-rendering:auto;shape-rendering:auto;text-rendering:auto;enable-background:new" />
  </g>
  <g
     transform="translate(-180.0004,-478)"
     id="layer18" />
  <g
     transform="translate(-180.0004,-478)"
     id="layer17" />
  <g
     transform="translate(-180.0004,-478)"
     id="layer16" />
  <g
     transform="translate(-180.0004,-278)"
     style="display:inline"
     id="layer10" />
  <g
     transform="translate(-180.0004,-478)"
     id="layer15" />
  <g
     transform="translate(-180.0004,-278)"
     id="layer12" />
</svg>
